# MagicaVoxel @ Ephtracy

# material
mtllib Brick1.mtl
usemtl palette

# normals
vn -1 0 0
vn 1 0 0
vn 0 0 1
vn 0 0 -1
vn 0 -1 0
vn 0 1 0

# texcoords
vt 0.306641 0.5
vt 0.970703 0.5
vt 0.978516 0.5

# verts
v -8 0 8
v -8 0 3
v -8 0 1
v -8 0 -8
v -8 1 8
v -8 1 4
v -8 1 -0
v -8 1 -8
v -8 2 7
v -8 2 5
v -8 2 -1
v -8 2 -5
v -8 2 -6
v -8 2 -7
v -8 3 6
v -8 3 5
v -8 3 -1
v -8 3 -5
v -8 5 6
v -8 5 4
v -8 5 -0
v -8 5 -6
v -8 6 8
v -8 6 7
v -8 6 3
v -8 6 1
v -8 6 -7
v -8 6 -8
v -8 7 8
v -8 7 7
v -8 7 6
v -8 7 4
v -8 7 3
v -8 7 2
v -8 7 1
v -8 7 -1
v -8 7 -2
v -8 7 -3
v -8 7 -4
v -8 7 -6
v -8 7 -7
v -8 7 -8
v -8 9 8
v -8 9 7
v -8 9 6
v -8 9 4
v -8 9 3
v -8 9 2
v -8 9 1
v -8 9 -1
v -8 9 -2
v -8 9 -3
v -8 9 -4
v -8 9 -6
v -8 9 -7
v -8 9 -8
v -8 10 8
v -8 10 7
v -8 10 3
v -8 10 1
v -8 10 -7
v -8 10 -8
v -8 11 6
v -8 11 4
v -8 11 -0
v -8 11 -6
v -8 13 6
v -8 13 5
v -8 13 -1
v -8 13 -5
v -8 14 7
v -8 14 5
v -8 14 -1
v -8 14 -5
v -8 14 -6
v -8 14 -7
v -8 15 8
v -8 15 4
v -8 15 -0
v -8 15 -8
v -8 16 8
v -8 16 3
v -8 16 1
v -8 16 -8
v 8 0 8
v 8 0 3
v 8 0 1
v 8 0 -8
v 8 1 8
v 8 1 4
v 8 1 -0
v 8 1 -8
v 8 2 7
v 8 2 5
v 8 2 -1
v 8 2 -5
v 8 2 -6
v 8 2 -7
v 8 3 6
v 8 3 5
v 8 3 -1
v 8 3 -5
v 8 5 6
v 8 5 4
v 8 5 -0
v 8 5 -6
v 8 6 8
v 8 6 7
v 8 6 3
v 8 6 1
v 8 6 -7
v 8 6 -8
v 8 7 8
v 8 7 7
v 8 7 6
v 8 7 4
v 8 7 3
v 8 7 2
v 8 7 1
v 8 7 -1
v 8 7 -2
v 8 7 -3
v 8 7 -4
v 8 7 -6
v 8 7 -7
v 8 7 -8
v 8 9 8
v 8 9 7
v 8 9 6
v 8 9 4
v 8 9 3
v 8 9 2
v 8 9 1
v 8 9 -1
v 8 9 -2
v 8 9 -3
v 8 9 -4
v 8 9 -6
v 8 9 -7
v 8 9 -8
v 8 10 8
v 8 10 7
v 8 10 3
v 8 10 1
v 8 10 -7
v 8 10 -8
v 8 11 6
v 8 11 4
v 8 11 -0
v 8 11 -6
v 8 13 6
v 8 13 5
v 8 13 -1
v 8 13 -5
v 8 14 7
v 8 14 5
v 8 14 -1
v 8 14 -5
v 8 14 -6
v 8 14 -7
v 8 15 8
v 8 15 4
v 8 15 -0
v 8 15 -8
v 8 16 8
v 8 16 3
v 8 16 1
v 8 16 -8
v -8 0 8
v -8 1 8
v -8 6 8
v -8 7 8
v -8 9 8
v -8 10 8
v -8 15 8
v -8 16 8
v -7 0 8
v -7 1 8
v -7 3 8
v -7 5 8
v -7 6 8
v -7 10 8
v -7 11 8
v -7 13 8
v -7 15 8
v -7 16 8
v -6 0 8
v -6 1 8
v -6 3 8
v -6 5 8
v -6 6 8
v -6 10 8
v -6 11 8
v -6 13 8
v -6 15 8
v -6 16 8
v -4 6 8
v -4 7 8
v -4 9 8
v -4 10 8
v -3 1 8
v -3 7 8
v -3 9 8
v -3 15 8
v -2 0 8
v -2 7 8
v -2 9 8
v -2 16 8
v -1 1 8
v -1 2 8
v -1 14 8
v -1 15 8
v 1 1 8
v 1 2 8
v 1 14 8
v 1 15 8
v 2 0 8
v 2 7 8
v 2 9 8
v 2 16 8
v 3 1 8
v 3 7 8
v 3 9 8
v 3 15 8
v 4 6 8
v 4 7 8
v 4 9 8
v 4 10 8
v 6 0 8
v 6 1 8
v 6 3 8
v 6 5 8
v 6 6 8
v 6 10 8
v 6 11 8
v 6 13 8
v 6 15 8
v 6 16 8
v 7 0 8
v 7 1 8
v 7 3 8
v 7 5 8
v 7 6 8
v 7 10 8
v 7 11 8
v 7 13 8
v 7 15 8
v 7 16 8
v 8 0 8
v 8 1 8
v 8 6 8
v 8 7 8
v 8 9 8
v 8 10 8
v 8 15 8
v 8 16 8
v -8 0 -8
v -8 1 -8
v -8 6 -8
v -8 7 -8
v -8 9 -8
v -8 10 -8
v -8 15 -8
v -8 16 -8
v -7 0 -8
v -7 1 -8
v -7 3 -8
v -7 5 -8
v -7 6 -8
v -7 10 -8
v -7 11 -8
v -7 13 -8
v -7 15 -8
v -7 16 -8
v -6 0 -8
v -6 1 -8
v -6 3 -8
v -6 5 -8
v -6 6 -8
v -6 10 -8
v -6 11 -8
v -6 13 -8
v -6 15 -8
v -6 16 -8
v -4 6 -8
v -4 7 -8
v -4 9 -8
v -4 10 -8
v -3 1 -8
v -3 7 -8
v -3 9 -8
v -3 15 -8
v -2 0 -8
v -2 7 -8
v -2 9 -8
v -2 16 -8
v -1 1 -8
v -1 2 -8
v -1 14 -8
v -1 15 -8
v 1 1 -8
v 1 2 -8
v 1 14 -8
v 1 15 -8
v 2 0 -8
v 2 7 -8
v 2 9 -8
v 2 16 -8
v 3 1 -8
v 3 7 -8
v 3 9 -8
v 3 15 -8
v 4 6 -8
v 4 7 -8
v 4 9 -8
v 4 10 -8
v 6 0 -8
v 6 1 -8
v 6 3 -8
v 6 5 -8
v 6 6 -8
v 6 10 -8
v 6 11 -8
v 6 13 -8
v 6 15 -8
v 6 16 -8
v 7 0 -8
v 7 1 -8
v 7 3 -8
v 7 5 -8
v 7 6 -8
v 7 10 -8
v 7 11 -8
v 7 13 -8
v 7 15 -8
v 7 16 -8
v 8 0 -8
v 8 1 -8
v 8 6 -8
v 8 7 -8
v 8 9 -8
v 8 10 -8
v 8 15 -8
v 8 16 -8
v -8 0 8
v -7 0 8
v -6 0 8
v -2 0 8
v 2 0 8
v 6 0 8
v 7 0 8
v 8 0 8
v -6 0 7
v -2 0 7
v 2 0 7
v 6 0 7
v -3 0 6
v -2 0 6
v 2 0 6
v 3 0 6
v -8 0 3
v -7 0 3
v -2 0 3
v -1 0 3
v 1 0 3
v 2 0 3
v 7 0 3
v 8 0 3
v -8 0 1
v -7 0 1
v -6 0 1
v -5 0 1
v -4 0 1
v -3 0 1
v 3 0 1
v 4 0 1
v 5 0 1
v 6 0 1
v 7 0 1
v 8 0 1
v -6 0 -1
v -5 0 -1
v -4 0 -1
v -3 0 -1
v 3 0 -1
v 4 0 -1
v 5 0 -1
v 6 0 -1
v -2 0 -3
v -1 0 -3
v 1 0 -3
v 2 0 -3
v -3 0 -6
v -2 0 -6
v 2 0 -6
v 3 0 -6
v -6 0 -7
v -2 0 -7
v 2 0 -7
v 6 0 -7
v -8 0 -8
v -7 0 -8
v -6 0 -8
v -2 0 -8
v 2 0 -8
v 6 0 -8
v 7 0 -8
v 8 0 -8
v -8 16 8
v -7 16 8
v -6 16 8
v -2 16 8
v 2 16 8
v 6 16 8
v 7 16 8
v 8 16 8
v -6 16 7
v -2 16 7
v 2 16 7
v 6 16 7
v -3 16 6
v -2 16 6
v 2 16 6
v 3 16 6
v -8 16 3
v -7 16 3
v -2 16 3
v -1 16 3
v 1 16 3
v 2 16 3
v 7 16 3
v 8 16 3
v -8 16 1
v -7 16 1
v -6 16 1
v -5 16 1
v -4 16 1
v -3 16 1
v 3 16 1
v 4 16 1
v 5 16 1
v 6 16 1
v 7 16 1
v 8 16 1
v -6 16 -1
v -5 16 -1
v -4 16 -1
v -3 16 -1
v 3 16 -1
v 4 16 -1
v 5 16 -1
v 6 16 -1
v -2 16 -3
v -1 16 -3
v 1 16 -3
v 2 16 -3
v -3 16 -6
v -2 16 -6
v 2 16 -6
v 3 16 -6
v -6 16 -7
v -2 16 -7
v 2 16 -7
v 6 16 -7
v -8 16 -8
v -7 16 -8
v -6 16 -8
v -2 16 -8
v 2 16 -8
v 6 16 -8
v 7 16 -8
v 8 16 -8

# faces
f 5/3/1 2/3/1 1/3/1
f 6/3/1 2/3/1 5/3/1
f 7/3/1 4/3/1 3/3/1
f 8/3/1 4/3/1 7/3/1
f 9/2/1 6/2/1 5/2/1
f 10/2/1 6/2/1 9/2/1
f 11/2/1 8/2/1 7/2/1
f 12/2/1 8/2/1 11/2/1
f 13/2/1 8/2/1 12/2/1
f 14/2/1 8/2/1 13/2/1
f 15/3/1 10/3/1 9/3/1
f 16/2/1 6/2/1 10/2/1
f 16/3/1 10/3/1 15/3/1
f 17/2/1 11/2/1 7/2/1
f 17/3/1 12/3/1 11/3/1
f 18/2/1 13/2/1 12/2/1
f 18/3/1 12/3/1 17/3/1
f 19/3/1 15/3/1 9/3/1
f 19/2/1 16/2/1 15/2/1
f 20/3/1 2/3/1 6/3/1
f 20/2/1 16/2/1 19/2/1
f 20/2/1 6/2/1 16/2/1
f 21/3/1 7/3/1 3/3/1
f 21/2/1 18/2/1 17/2/1
f 21/2/1 17/2/1 7/2/1
f 22/2/1 13/2/1 18/2/1
f 22/2/1 18/2/1 21/2/1
f 22/3/1 14/3/1 13/3/1
f 23/2/1 9/2/1 5/2/1
f 24/3/1 19/3/1 9/3/1
f 24/2/1 9/2/1 23/2/1
f 24/3/1 20/3/1 19/3/1
f 25/2/1 3/2/1 2/2/1
f 25/3/1 20/3/1 24/3/1
f 25/3/1 2/3/1 20/3/1
f 26/3/1 22/3/1 21/3/1
f 26/2/1 3/2/1 25/2/1
f 26/3/1 21/3/1 3/3/1
f 27/2/1 8/2/1 14/2/1
f 27/3/1 22/3/1 26/3/1
f 27/3/1 14/3/1 22/3/1
f 28/2/1 8/2/1 27/2/1
f 29/3/1 24/3/1 23/3/1
f 30/2/1 25/2/1 24/2/1
f 30/3/1 24/3/1 29/3/1
f 30/2/1 26/2/1 25/2/1
f 30/2/1 27/2/1 26/2/1
f 31/2/1 27/2/1 30/2/1
f 32/2/1 27/2/1 31/2/1
f 33/2/1 27/2/1 32/2/1
f 34/2/1 27/2/1 33/2/1
f 35/2/1 27/2/1 34/2/1
f 36/2/1 27/2/1 35/2/1
f 37/2/1 27/2/1 36/2/1
f 38/2/1 27/2/1 37/2/1
f 39/2/1 27/2/1 38/2/1
f 40/2/1 27/2/1 39/2/1
f 41/3/1 28/3/1 27/3/1
f 41/2/1 27/2/1 40/2/1
f 42/3/1 28/3/1 41/3/1
f 43/2/1 30/2/1 29/2/1
f 44/3/1 31/3/1 30/3/1
f 44/2/1 30/2/1 43/2/1
f 45/2/1 32/2/1 31/2/1
f 45/3/1 31/3/1 44/3/1
f 46/3/1 33/3/1 32/3/1
f 46/2/1 32/2/1 45/2/1
f 47/2/1 34/2/1 33/2/1
f 47/3/1 33/3/1 46/3/1
f 48/3/1 35/3/1 34/3/1
f 48/2/1 34/2/1 47/2/1
f 49/2/1 36/2/1 35/2/1
f 49/3/1 35/3/1 48/3/1
f 50/3/1 37/3/1 36/3/1
f 50/2/1 36/2/1 49/2/1
f 51/2/1 38/2/1 37/2/1
f 51/3/1 37/3/1 50/3/1
f 52/3/1 39/3/1 38/3/1
f 52/2/1 38/2/1 51/2/1
f 53/2/1 40/2/1 39/2/1
f 53/3/1 39/3/1 52/3/1
f 54/3/1 41/3/1 40/3/1
f 54/2/1 40/2/1 53/2/1
f 55/2/1 42/2/1 41/2/1
f 55/3/1 41/3/1 54/3/1
f 56/2/1 42/2/1 55/2/1
f 57/3/1 44/3/1 43/3/1
f 58/2/1 52/2/1 51/2/1
f 58/3/1 44/3/1 57/3/1
f 58/2/1 45/2/1 44/2/1
f 58/2/1 46/2/1 45/2/1
f 58/2/1 55/2/1 54/2/1
f 58/2/1 54/2/1 53/2/1
f 58/2/1 53/2/1 52/2/1
f 58/2/1 51/2/1 50/2/1
f 58/2/1 50/2/1 49/2/1
f 58/2/1 49/2/1 48/2/1
f 58/2/1 48/2/1 47/2/1
f 58/2/1 47/2/1 46/2/1
f 59/2/1 55/2/1 58/2/1
f 60/2/1 55/2/1 59/2/1
f 61/3/1 56/3/1 55/3/1
f 61/2/1 55/2/1 60/2/1
f 62/3/1 56/3/1 61/3/1
f 63/3/1 59/3/1 58/3/1
f 64/3/1 59/3/1 63/3/1
f 65/3/1 61/3/1 60/3/1
f 66/3/1 61/3/1 65/3/1
f 67/3/1 63/3/1 58/3/1
f 67/2/1 64/2/1 63/2/1
f 68/2/1 64/2/1 67/2/1
f 69/2/1 66/2/1 65/2/1
f 70/2/1 66/2/1 69/2/1
f 71/2/1 58/2/1 57/2/1
f 71/3/1 67/3/1 58/3/1
f 71/3/1 68/3/1 67/3/1
f 72/2/1 64/2/1 68/2/1
f 72/3/1 68/3/1 71/3/1
f 73/3/1 70/3/1 69/3/1
f 73/2/1 69/2/1 65/2/1
f 74/2/1 66/2/1 70/2/1
f 74/3/1 70/3/1 73/3/1
f 75/3/1 61/3/1 66/3/1
f 75/2/1 66/2/1 74/2/1
f 76/2/1 62/2/1 61/2/1
f 76/3/1 61/3/1 75/3/1
f 77/2/1 71/2/1 57/2/1
f 77/2/1 72/2/1 71/2/1
f 78/3/1 59/3/1 64/3/1
f 78/2/1 72/2/1 77/2/1
f 78/2/1 64/2/1 72/2/1
f 79/2/1 73/2/1 65/2/1
f 79/2/1 75/2/1 74/2/1
f 79/2/1 74/2/1 73/2/1
f 79/2/1 76/2/1 75/2/1
f 79/3/1 65/3/1 60/3/1
f 80/2/1 62/2/1 76/2/1
f 80/2/1 76/2/1 79/2/1
f 81/3/1 78/3/1 77/3/1
f 82/2/1 60/2/1 59/2/1
f 82/3/1 78/3/1 81/3/1
f 82/3/1 59/3/1 78/3/1
f 83/3/1 80/3/1 79/3/1
f 83/2/1 60/2/1 82/2/1
f 83/3/1 79/3/1 60/3/1
f 84/3/1 80/3/1 83/3/1
f 85/3/2 86/3/2 89/3/2
f 89/3/2 86/3/2 90/3/2
f 87/3/2 88/3/2 91/3/2
f 91/3/2 88/3/2 92/3/2
f 89/2/2 90/2/2 93/2/2
f 93/2/2 90/2/2 94/2/2
f 91/2/2 92/2/2 95/2/2
f 95/2/2 92/2/2 96/2/2
f 96/2/2 92/2/2 97/2/2
f 97/2/2 92/2/2 98/2/2
f 93/3/2 94/3/2 99/3/2
f 94/2/2 90/2/2 100/2/2
f 99/3/2 94/3/2 100/3/2
f 91/2/2 95/2/2 101/2/2
f 95/3/2 96/3/2 101/3/2
f 96/2/2 97/2/2 102/2/2
f 101/3/2 96/3/2 102/3/2
f 93/3/2 99/3/2 103/3/2
f 99/2/2 100/2/2 103/2/2
f 90/3/2 86/3/2 104/3/2
f 103/2/2 100/2/2 104/2/2
f 100/2/2 90/2/2 104/2/2
f 87/3/2 91/3/2 105/3/2
f 101/2/2 102/2/2 105/2/2
f 91/2/2 101/2/2 105/2/2
f 102/2/2 97/2/2 106/2/2
f 105/2/2 102/2/2 106/2/2
f 97/3/2 98/3/2 106/3/2
f 89/2/2 93/2/2 107/2/2
f 93/3/2 103/3/2 108/3/2
f 107/2/2 93/2/2 108/2/2
f 103/3/2 104/3/2 108/3/2
f 86/2/2 87/2/2 109/2/2
f 108/3/2 104/3/2 109/3/2
f 104/3/2 86/3/2 109/3/2
f 105/3/2 106/3/2 110/3/2
f 109/2/2 87/2/2 110/2/2
f 87/3/2 105/3/2 110/3/2
f 98/2/2 92/2/2 111/2/2
f 110/3/2 106/3/2 111/3/2
f 106/3/2 98/3/2 111/3/2
f 111/2/2 92/2/2 112/2/2
f 107/3/2 108/3/2 113/3/2
f 108/2/2 109/2/2 114/2/2
f 113/3/2 108/3/2 114/3/2
f 109/2/2 110/2/2 114/2/2
f 110/2/2 111/2/2 114/2/2
f 114/2/2 111/2/2 115/2/2
f 115/2/2 111/2/2 116/2/2
f 116/2/2 111/2/2 117/2/2
f 117/2/2 111/2/2 118/2/2
f 118/2/2 111/2/2 119/2/2
f 119/2/2 111/2/2 120/2/2
f 120/2/2 111/2/2 121/2/2
f 121/2/2 111/2/2 122/2/2
f 122/2/2 111/2/2 123/2/2
f 123/2/2 111/2/2 124/2/2
f 111/3/2 112/3/2 125/3/2
f 124/2/2 111/2/2 125/2/2
f 125/3/2 112/3/2 126/3/2
f 113/2/2 114/2/2 127/2/2
f 114/3/2 115/3/2 128/3/2
f 127/2/2 114/2/2 128/2/2
f 115/2/2 116/2/2 129/2/2
f 128/3/2 115/3/2 129/3/2
f 116/3/2 117/3/2 130/3/2
f 129/2/2 116/2/2 130/2/2
f 117/2/2 118/2/2 131/2/2
f 130/3/2 117/3/2 131/3/2
f 118/3/2 119/3/2 132/3/2
f 131/2/2 118/2/2 132/2/2
f 119/2/2 120/2/2 133/2/2
f 132/3/2 119/3/2 133/3/2
f 120/3/2 121/3/2 134/3/2
f 133/2/2 120/2/2 134/2/2
f 121/2/2 122/2/2 135/2/2
f 134/3/2 121/3/2 135/3/2
f 122/3/2 123/3/2 136/3/2
f 135/2/2 122/2/2 136/2/2
f 123/2/2 124/2/2 137/2/2
f 136/3/2 123/3/2 137/3/2
f 124/3/2 125/3/2 138/3/2
f 137/2/2 124/2/2 138/2/2
f 125/2/2 126/2/2 139/2/2
f 138/3/2 125/3/2 139/3/2
f 139/2/2 126/2/2 140/2/2
f 127/3/2 128/3/2 141/3/2
f 135/2/2 136/2/2 142/2/2
f 141/3/2 128/3/2 142/3/2
f 128/2/2 129/2/2 142/2/2
f 129/2/2 130/2/2 142/2/2
f 138/2/2 139/2/2 142/2/2
f 137/2/2 138/2/2 142/2/2
f 136/2/2 137/2/2 142/2/2
f 134/2/2 135/2/2 142/2/2
f 133/2/2 134/2/2 142/2/2
f 132/2/2 133/2/2 142/2/2
f 131/2/2 132/2/2 142/2/2
f 130/2/2 131/2/2 142/2/2
f 142/2/2 139/2/2 143/2/2
f 143/2/2 139/2/2 144/2/2
f 139/3/2 140/3/2 145/3/2
f 144/2/2 139/2/2 145/2/2
f 145/3/2 140/3/2 146/3/2
f 142/3/2 143/3/2 147/3/2
f 147/3/2 143/3/2 148/3/2
f 144/3/2 145/3/2 149/3/2
f 149/3/2 145/3/2 150/3/2
f 142/3/2 147/3/2 151/3/2
f 147/2/2 148/2/2 151/2/2
f 151/2/2 148/2/2 152/2/2
f 149/2/2 150/2/2 153/2/2
f 153/2/2 150/2/2 154/2/2
f 141/2/2 142/2/2 155/2/2
f 142/3/2 151/3/2 155/3/2
f 151/3/2 152/3/2 155/3/2
f 152/2/2 148/2/2 156/2/2
f 155/3/2 152/3/2 156/3/2
f 153/3/2 154/3/2 157/3/2
f 149/2/2 153/2/2 157/2/2
f 154/2/2 150/2/2 158/2/2
f 157/3/2 154/3/2 158/3/2
f 150/3/2 145/3/2 159/3/2
f 158/2/2 150/2/2 159/2/2
f 145/2/2 146/2/2 160/2/2
f 159/3/2 145/3/2 160/3/2
f 141/2/2 155/2/2 161/2/2
f 155/2/2 156/2/2 161/2/2
f 148/3/2 143/3/2 162/3/2
f 161/2/2 156/2/2 162/2/2
f 156/2/2 148/2/2 162/2/2
f 149/2/2 157/2/2 163/2/2
f 158/2/2 159/2/2 163/2/2
f 157/2/2 158/2/2 163/2/2
f 159/2/2 160/2/2 163/2/2
f 144/3/2 149/3/2 163/3/2
f 160/2/2 146/2/2 164/2/2
f 163/2/2 160/2/2 164/2/2
f 161/3/2 162/3/2 165/3/2
f 143/2/2 144/2/2 166/2/2
f 165/3/2 162/3/2 166/3/2
f 162/3/2 143/3/2 166/3/2
f 163/3/2 164/3/2 167/3/2
f 166/2/2 144/2/2 167/2/2
f 144/3/2 163/3/2 167/3/2
f 167/3/2 164/3/2 168/3/2
f 177/3/3 170/3/3 169/3/3
f 178/2/3 171/2/3 170/2/3
f 178/3/3 170/3/3 177/3/3
f 179/2/3 171/2/3 178/2/3
f 180/2/3 171/2/3 179/2/3
f 181/3/3 172/3/3 171/3/3
f 181/2/3 171/2/3 180/2/3
f 182/3/3 174/3/3 173/3/3
f 182/2/3 175/2/3 174/2/3
f 183/2/3 175/2/3 182/2/3
f 184/2/3 175/2/3 183/2/3
f 185/3/3 176/3/3 175/3/3
f 185/2/3 175/2/3 184/2/3
f 186/3/3 176/3/3 185/3/3
f 187/2/3 178/2/3 177/2/3
f 188/3/3 179/3/3 178/3/3
f 188/2/3 178/2/3 187/2/3
f 189/2/3 180/2/3 179/2/3
f 189/3/3 179/3/3 188/3/3
f 190/3/3 181/3/3 180/3/3
f 190/2/3 180/2/3 189/2/3
f 191/3/3 172/3/3 181/3/3
f 191/3/3 181/3/3 190/3/3
f 192/3/3 182/3/3 173/3/3
f 192/3/3 183/3/3 182/3/3
f 193/2/3 184/2/3 183/2/3
f 193/3/3 183/3/3 192/3/3
f 194/3/3 185/3/3 184/3/3
f 194/2/3 184/2/3 193/2/3
f 195/2/3 186/2/3 185/2/3
f 195/3/3 185/3/3 194/3/3
f 196/2/3 186/2/3 195/2/3
f 197/2/3 190/2/3 189/2/3
f 197/2/3 189/2/3 188/2/3
f 197/3/3 172/3/3 191/3/3
f 197/2/3 191/2/3 190/2/3
f 198/2/3 173/2/3 172/2/3
f 198/3/3 172/3/3 197/3/3
f 199/3/3 192/3/3 173/3/3
f 199/2/3 173/2/3 198/2/3
f 200/2/3 195/2/3 194/2/3
f 200/3/3 192/3/3 199/3/3
f 200/2/3 194/2/3 193/2/3
f 200/2/3 193/2/3 192/2/3
f 201/2/3 198/2/3 197/2/3
f 201/3/3 188/3/3 187/3/3
f 201/2/3 200/2/3 199/2/3
f 201/2/3 199/2/3 198/2/3
f 201/2/3 197/2/3 188/2/3
f 202/2/3 200/2/3 201/2/3
f 203/2/3 200/2/3 202/2/3
f 204/2/3 195/2/3 200/2/3
f 204/2/3 200/2/3 203/2/3
f 204/3/3 196/3/3 195/3/3
f 205/3/3 202/3/3 201/3/3
f 205/3/3 201/3/3 187/3/3
f 206/2/3 203/2/3 202/2/3
f 206/3/3 202/3/3 205/3/3
f 207/3/3 204/3/3 203/3/3
f 207/2/3 203/2/3 206/2/3
f 208/3/3 196/3/3 204/3/3
f 208/3/3 204/3/3 207/3/3
f 209/2/3 207/2/3 206/2/3
f 209/2/3 206/2/3 205/2/3
f 209/2/3 208/2/3 207/2/3
f 210/2/3 208/2/3 209/2/3
f 211/2/3 208/2/3 210/2/3
f 212/2/3 208/2/3 211/2/3
f 213/2/3 209/2/3 205/2/3
f 213/3/3 210/3/3 209/3/3
f 214/2/3 211/2/3 210/2/3
f 214/3/3 210/3/3 213/3/3
f 215/3/3 212/3/3 211/3/3
f 215/2/3 211/2/3 214/2/3
f 216/2/3 208/2/3 212/2/3
f 216/3/3 212/3/3 215/3/3
f 217/2/3 215/2/3 214/2/3
f 217/2/3 214/2/3 213/2/3
f 217/2/3 216/2/3 215/2/3
f 217/2/3 213/2/3 205/2/3
f 218/2/3 216/2/3 217/2/3
f 219/2/3 216/2/3 218/2/3
f 220/2/3 208/2/3 216/2/3
f 220/2/3 216/2/3 219/2/3
f 221/3/3 218/3/3 217/3/3
f 222/2/3 219/2/3 218/2/3
f 222/3/3 218/3/3 221/3/3
f 223/3/3 220/3/3 219/3/3
f 223/2/3 219/2/3 222/2/3
f 224/3/3 220/3/3 223/3/3
f 225/2/3 222/2/3 221/2/3
f 225/2/3 223/2/3 222/2/3
f 225/2/3 224/2/3 223/2/3
f 226/2/3 224/2/3 225/2/3
f 227/2/3 224/2/3 226/2/3
f 228/2/3 224/2/3 227/2/3
f 229/3/3 221/3/3 217/3/3
f 230/2/3 225/2/3 221/2/3
f 230/3/3 221/3/3 229/3/3
f 231/2/3 225/2/3 230/2/3
f 232/2/3 225/2/3 231/2/3
f 233/3/3 226/3/3 225/3/3
f 233/2/3 225/2/3 232/2/3
f 234/2/3 224/2/3 228/2/3
f 234/3/3 228/3/3 227/3/3
f 235/2/3 224/2/3 234/2/3
f 236/2/3 224/2/3 235/2/3
f 237/3/3 220/3/3 224/3/3
f 237/2/3 224/2/3 236/2/3
f 238/3/3 220/3/3 237/3/3
f 239/2/3 230/2/3 229/2/3
f 240/3/3 231/3/3 230/3/3
f 240/2/3 230/2/3 239/2/3
f 241/2/3 232/2/3 231/2/3
f 241/3/3 231/3/3 240/3/3
f 242/3/3 233/3/3 232/3/3
f 242/2/3 232/2/3 241/2/3
f 243/3/3 226/3/3 233/3/3
f 243/3/3 233/3/3 242/3/3
f 244/3/3 234/3/3 227/3/3
f 244/3/3 235/3/3 234/3/3
f 245/2/3 236/2/3 235/2/3
f 245/3/3 235/3/3 244/3/3
f 246/3/3 237/3/3 236/3/3
f 246/2/3 236/2/3 245/2/3
f 247/2/3 238/2/3 237/2/3
f 247/3/3 237/3/3 246/3/3
f 248/2/3 238/2/3 247/2/3
f 249/3/3 240/3/3 239/3/3
f 250/2/3 242/2/3 241/2/3
f 250/3/3 240/3/3 249/3/3
f 250/2/3 241/2/3 240/2/3
f 250/2/3 243/2/3 242/2/3
f 251/3/3 226/3/3 243/3/3
f 251/2/3 243/2/3 250/2/3
f 252/2/3 227/2/3 226/2/3
f 252/3/3 226/3/3 251/3/3
f 253/3/3 244/3/3 227/3/3
f 253/2/3 227/2/3 252/2/3
f 254/2/3 247/2/3 246/2/3
f 254/3/3 244/3/3 253/3/3
f 254/2/3 245/2/3 244/2/3
f 254/2/3 246/2/3 245/2/3
f 255/3/3 248/3/3 247/3/3
f 255/2/3 247/2/3 254/2/3
f 256/3/3 248/3/3 255/3/3
f 257/3/4 258/3/4 265/3/4
f 258/2/4 259/2/4 266/2/4
f 265/3/4 258/3/4 266/3/4
f 266/2/4 259/2/4 267/2/4
f 267/2/4 259/2/4 268/2/4
f 259/3/4 260/3/4 269/3/4
f 268/2/4 259/2/4 269/2/4
f 261/3/4 262/3/4 270/3/4
f 262/2/4 263/2/4 270/2/4
f 270/2/4 263/2/4 271/2/4
f 271/2/4 263/2/4 272/2/4
f 263/3/4 264/3/4 273/3/4
f 272/2/4 263/2/4 273/2/4
f 273/3/4 264/3/4 274/3/4
f 265/2/4 266/2/4 275/2/4
f 266/3/4 267/3/4 276/3/4
f 275/2/4 266/2/4 276/2/4
f 267/2/4 268/2/4 277/2/4
f 276/3/4 267/3/4 277/3/4
f 268/3/4 269/3/4 278/3/4
f 277/2/4 268/2/4 278/2/4
f 269/3/4 260/3/4 279/3/4
f 278/3/4 269/3/4 279/3/4
f 261/3/4 270/3/4 280/3/4
f 270/3/4 271/3/4 280/3/4
f 271/2/4 272/2/4 281/2/4
f 280/3/4 271/3/4 281/3/4
f 272/3/4 273/3/4 282/3/4
f 281/2/4 272/2/4 282/2/4
f 273/2/4 274/2/4 283/2/4
f 282/3/4 273/3/4 283/3/4
f 283/2/4 274/2/4 284/2/4
f 277/2/4 278/2/4 285/2/4
f 276/2/4 277/2/4 285/2/4
f 279/3/4 260/3/4 285/3/4
f 278/2/4 279/2/4 285/2/4
f 260/2/4 261/2/4 286/2/4
f 285/3/4 260/3/4 286/3/4
f 261/3/4 280/3/4 287/3/4
f 286/2/4 261/2/4 287/2/4
f 282/2/4 283/2/4 288/2/4
f 287/3/4 280/3/4 288/3/4
f 281/2/4 282/2/4 288/2/4
f 280/2/4 281/2/4 288/2/4
f 285/2/4 286/2/4 289/2/4
f 275/3/4 276/3/4 289/3/4
f 287/2/4 288/2/4 289/2/4
f 286/2/4 287/2/4 289/2/4
f 276/2/4 285/2/4 289/2/4
f 289/2/4 288/2/4 290/2/4
f 290/2/4 288/2/4 291/2/4
f 288/2/4 283/2/4 292/2/4
f 291/2/4 288/2/4 292/2/4
f 283/3/4 284/3/4 292/3/4
f 289/3/4 290/3/4 293/3/4
f 275/3/4 289/3/4 293/3/4
f 290/2/4 291/2/4 294/2/4
f 293/3/4 290/3/4 294/3/4
f 291/3/4 292/3/4 295/3/4
f 294/2/4 291/2/4 295/2/4
f 292/3/4 284/3/4 296/3/4
f 295/3/4 292/3/4 296/3/4
f 294/2/4 295/2/4 297/2/4
f 293/2/4 294/2/4 297/2/4
f 295/2/4 296/2/4 297/2/4
f 297/2/4 296/2/4 298/2/4
f 298/2/4 296/2/4 299/2/4
f 299/2/4 296/2/4 300/2/4
f 293/2/4 297/2/4 301/2/4
f 297/3/4 298/3/4 301/3/4
f 298/2/4 299/2/4 302/2/4
f 301/3/4 298/3/4 302/3/4
f 299/3/4 300/3/4 303/3/4
f 302/2/4 299/2/4 303/2/4
f 300/2/4 296/2/4 304/2/4
f 303/3/4 300/3/4 304/3/4
f 302/2/4 303/2/4 305/2/4
f 301/2/4 302/2/4 305/2/4
f 303/2/4 304/2/4 305/2/4
f 293/2/4 301/2/4 305/2/4
f 305/2/4 304/2/4 306/2/4
f 306/2/4 304/2/4 307/2/4
f 304/2/4 296/2/4 308/2/4
f 307/2/4 304/2/4 308/2/4
f 305/3/4 306/3/4 309/3/4
f 306/2/4 307/2/4 310/2/4
f 309/3/4 306/3/4 310/3/4
f 307/3/4 308/3/4 311/3/4
f 310/2/4 307/2/4 311/2/4
f 311/3/4 308/3/4 312/3/4
f 309/2/4 310/2/4 313/2/4
f 310/2/4 311/2/4 313/2/4
f 311/2/4 312/2/4 313/2/4
f 313/2/4 312/2/4 314/2/4
f 314/2/4 312/2/4 315/2/4
f 315/2/4 312/2/4 316/2/4
f 305/3/4 309/3/4 317/3/4
f 309/2/4 313/2/4 318/2/4
f 317/3/4 309/3/4 318/3/4
f 318/2/4 313/2/4 319/2/4
f 319/2/4 313/2/4 320/2/4
f 313/3/4 314/3/4 321/3/4
f 320/2/4 313/2/4 321/2/4
f 316/2/4 312/2/4 322/2/4
f 315/3/4 316/3/4 322/3/4
f 322/2/4 312/2/4 323/2/4
f 323/2/4 312/2/4 324/2/4
f 312/3/4 308/3/4 325/3/4
f 324/2/4 312/2/4 325/2/4
f 325/3/4 308/3/4 326/3/4
f 317/2/4 318/2/4 327/2/4
f 318/3/4 319/3/4 328/3/4
f 327/2/4 318/2/4 328/2/4
f 319/2/4 320/2/4 329/2/4
f 328/3/4 319/3/4 329/3/4
f 320/3/4 321/3/4 330/3/4
f 329/2/4 320/2/4 330/2/4
f 321/3/4 314/3/4 331/3/4
f 330/3/4 321/3/4 331/3/4
f 315/3/4 322/3/4 332/3/4
f 322/3/4 323/3/4 332/3/4
f 323/2/4 324/2/4 333/2/4
f 332/3/4 323/3/4 333/3/4
f 324/3/4 325/3/4 334/3/4
f 333/2/4 324/2/4 334/2/4
f 325/2/4 326/2/4 335/2/4
f 334/3/4 325/3/4 335/3/4
f 335/2/4 326/2/4 336/2/4
f 327/3/4 328/3/4 337/3/4
f 329/2/4 330/2/4 338/2/4
f 337/3/4 328/3/4 338/3/4
f 328/2/4 329/2/4 338/2/4
f 330/2/4 331/2/4 338/2/4
f 331/3/4 314/3/4 339/3/4
f 338/2/4 331/2/4 339/2/4
f 314/2/4 315/2/4 340/2/4
f 339/3/4 314/3/4 340/3/4
f 315/3/4 332/3/4 341/3/4
f 340/2/4 315/2/4 341/2/4
f 334/2/4 335/2/4 342/2/4
f 341/3/4 332/3/4 342/3/4
f 332/2/4 333/2/4 342/2/4
f 333/2/4 334/2/4 342/2/4
f 335/3/4 336/3/4 343/3/4
f 342/2/4 335/2/4 343/2/4
f 343/3/4 336/3/4 344/3/4
f 353/2/5 347/2/5 346/2/5
f 353/3/5 348/3/5 347/3/5
f 354/2/5 349/2/5 348/2/5
f 354/3/5 348/3/5 353/3/5
f 355/3/5 350/3/5 349/3/5
f 355/2/5 349/2/5 354/2/5
f 356/2/5 351/2/5 350/2/5
f 356/3/5 350/3/5 355/3/5
f 357/2/5 355/2/5 354/2/5
f 357/2/5 354/2/5 353/2/5
f 357/2/5 356/2/5 355/2/5
f 358/2/5 356/2/5 357/2/5
f 359/2/5 356/2/5 358/2/5
f 360/2/5 356/2/5 359/2/5
f 361/3/5 346/3/5 345/3/5
f 362/2/5 353/2/5 346/2/5
f 362/3/5 346/3/5 361/3/5
f 362/2/5 357/2/5 353/2/5
f 363/3/5 358/3/5 357/3/5
f 363/2/5 359/2/5 358/2/5
f 364/2/5 359/2/5 363/2/5
f 365/2/5 359/2/5 364/2/5
f 366/3/5 360/3/5 359/3/5
f 366/2/5 359/2/5 365/2/5
f 367/2/5 356/2/5 360/2/5
f 367/3/5 352/3/5 351/3/5
f 367/2/5 351/2/5 356/2/5
f 368/3/5 352/3/5 367/3/5
f 369/2/5 362/2/5 361/2/5
f 370/2/5 357/2/5 362/2/5
f 370/2/5 362/2/5 369/2/5
f 371/2/5 357/2/5 370/2/5
f 372/2/5 357/2/5 371/2/5
f 373/2/5 357/2/5 372/2/5
f 374/3/5 364/3/5 363/3/5
f 374/2/5 357/2/5 373/2/5
f 374/3/5 363/3/5 357/3/5
f 375/3/5 360/3/5 366/3/5
f 375/3/5 366/3/5 365/3/5
f 375/2/5 367/2/5 360/2/5
f 375/2/5 368/2/5 367/2/5
f 376/2/5 368/2/5 375/2/5
f 377/2/5 368/2/5 376/2/5
f 378/2/5 368/2/5 377/2/5
f 379/2/5 368/2/5 378/2/5
f 380/2/5 368/2/5 379/2/5
f 381/3/5 372/3/5 371/3/5
f 381/2/5 371/2/5 370/2/5
f 382/2/5 373/2/5 372/2/5
f 382/3/5 372/3/5 381/3/5
f 383/3/5 374/3/5 373/3/5
f 383/2/5 373/2/5 382/2/5
f 384/3/5 364/3/5 374/3/5
f 384/3/5 374/3/5 383/3/5
f 385/3/5 375/3/5 365/3/5
f 385/3/5 376/3/5 375/3/5
f 386/2/5 377/2/5 376/2/5
f 386/3/5 376/3/5 385/3/5
f 387/3/5 378/3/5 377/3/5
f 387/2/5 377/2/5 386/2/5
f 388/2/5 379/2/5 378/2/5
f 388/3/5 378/3/5 387/3/5
f 389/3/5 364/3/5 384/3/5
f 390/2/5 365/2/5 364/2/5
f 390/3/5 364/3/5 389/3/5
f 391/3/5 385/3/5 365/3/5
f 391/2/5 365/2/5 390/2/5
f 392/3/5 385/3/5 391/3/5
f 393/2/5 383/2/5 382/2/5
f 393/2/5 382/2/5 381/2/5
f 393/3/5 389/3/5 384/3/5
f 393/2/5 384/2/5 383/2/5
f 394/2/5 392/2/5 391/2/5
f 394/3/5 389/3/5 393/3/5
f 394/2/5 391/2/5 390/2/5
f 394/2/5 390/2/5 389/2/5
f 395/3/5 385/3/5 392/3/5
f 395/2/5 392/2/5 394/2/5
f 396/2/5 387/2/5 386/2/5
f 396/3/5 385/3/5 395/3/5
f 396/2/5 388/2/5 387/2/5
f 396/2/5 386/2/5 385/2/5
f 397/2/5 394/2/5 393/2/5
f 397/2/5 393/2/5 381/2/5
f 397/2/5 396/2/5 395/2/5
f 397/2/5 381/2/5 370/2/5
f 397/2/5 395/2/5 394/2/5
f 398/2/5 396/2/5 397/2/5
f 399/2/5 396/2/5 398/2/5
f 400/2/5 388/2/5 396/2/5
f 400/2/5 396/2/5 399/2/5
f 400/2/5 379/2/5 388/2/5
f 401/3/5 370/3/5 369/3/5
f 402/2/5 397/2/5 370/2/5
f 402/3/5 370/3/5 401/3/5
f 403/3/5 398/3/5 397/3/5
f 403/2/5 397/2/5 402/2/5
f 404/2/5 399/2/5 398/2/5
f 404/3/5 398/3/5 403/3/5
f 405/3/5 400/3/5 399/3/5
f 405/2/5 399/2/5 404/2/5
f 406/2/5 379/2/5 400/2/5
f 406/3/5 400/3/5 405/3/5
f 407/3/5 380/3/5 379/3/5
f 407/2/5 379/2/5 406/2/5
f 408/3/5 380/3/5 407/3/5
f 410/2/6 411/2/6 417/2/6
f 411/3/6 412/3/6 417/3/6
f 412/2/6 413/2/6 418/2/6
f 417/3/6 412/3/6 418/3/6
f 413/3/6 414/3/6 419/3/6
f 418/2/6 413/2/6 419/2/6
f 414/2/6 415/2/6 420/2/6
f 419/3/6 414/3/6 420/3/6
f 418/2/6 419/2/6 421/2/6
f 417/2/6 418/2/6 421/2/6
f 419/2/6 420/2/6 421/2/6
f 421/2/6 420/2/6 422/2/6
f 422/2/6 420/2/6 423/2/6
f 423/2/6 420/2/6 424/2/6
f 409/3/6 410/3/6 425/3/6
f 410/2/6 417/2/6 426/2/6
f 425/3/6 410/3/6 426/3/6
f 417/2/6 421/2/6 426/2/6
f 421/3/6 422/3/6 427/3/6
f 422/2/6 423/2/6 427/2/6
f 427/2/6 423/2/6 428/2/6
f 428/2/6 423/2/6 429/2/6
f 423/3/6 424/3/6 430/3/6
f 429/2/6 423/2/6 430/2/6
f 424/2/6 420/2/6 431/2/6
f 415/3/6 416/3/6 431/3/6
f 420/2/6 415/2/6 431/2/6
f 431/3/6 416/3/6 432/3/6
f 425/2/6 426/2/6 433/2/6
f 426/2/6 421/2/6 434/2/6
f 433/2/6 426/2/6 434/2/6
f 434/2/6 421/2/6 435/2/6
f 435/2/6 421/2/6 436/2/6
f 436/2/6 421/2/6 437/2/6
f 427/3/6 428/3/6 438/3/6
f 437/2/6 421/2/6 438/2/6
f 421/3/6 427/3/6 438/3/6
f 430/3/6 424/3/6 439/3/6
f 429/3/6 430/3/6 439/3/6
f 424/2/6 431/2/6 439/2/6
f 431/2/6 432/2/6 439/2/6
f 439/2/6 432/2/6 440/2/6
f 440/2/6 432/2/6 441/2/6
f 441/2/6 432/2/6 442/2/6
f 442/2/6 432/2/6 443/2/6
f 443/2/6 432/2/6 444/2/6
f 435/3/6 436/3/6 445/3/6
f 434/2/6 435/2/6 445/2/6
f 436/2/6 437/2/6 446/2/6
f 445/3/6 436/3/6 446/3/6
f 437/3/6 438/3/6 447/3/6
f 446/2/6 437/2/6 447/2/6
f 438/3/6 428/3/6 448/3/6
f 447/3/6 438/3/6 448/3/6
f 429/3/6 439/3/6 449/3/6
f 439/3/6 440/3/6 449/3/6
f 440/2/6 441/2/6 450/2/6
f 449/3/6 440/3/6 450/3/6
f 441/3/6 442/3/6 451/3/6
f 450/2/6 441/2/6 451/2/6
f 442/2/6 443/2/6 452/2/6
f 451/3/6 442/3/6 452/3/6
f 448/3/6 428/3/6 453/3/6
f 428/2/6 429/2/6 454/2/6
f 453/3/6 428/3/6 454/3/6
f 429/3/6 449/3/6 455/3/6
f 454/2/6 429/2/6 455/2/6
f 455/3/6 449/3/6 456/3/6
f 446/2/6 447/2/6 457/2/6
f 445/2/6 446/2/6 457/2/6
f 448/3/6 453/3/6 457/3/6
f 447/2/6 448/2/6 457/2/6
f 455/2/6 456/2/6 458/2/6
f 457/3/6 453/3/6 458/3/6
f 454/2/6 455/2/6 458/2/6
f 453/2/6 454/2/6 458/2/6
f 456/3/6 449/3/6 459/3/6
f 458/2/6 456/2/6 459/2/6
f 450/2/6 451/2/6 460/2/6
f 459/3/6 449/3/6 460/3/6
f 451/2/6 452/2/6 460/2/6
f 449/2/6 450/2/6 460/2/6
f 457/2/6 458/2/6 461/2/6
f 445/2/6 457/2/6 461/2/6
f 459/2/6 460/2/6 461/2/6
f 434/2/6 445/2/6 461/2/6
f 458/2/6 459/2/6 461/2/6
f 461/2/6 460/2/6 462/2/6
f 462/2/6 460/2/6 463/2/6
f 460/2/6 452/2/6 464/2/6
f 463/2/6 460/2/6 464/2/6
f 452/2/6 443/2/6 464/2/6
f 433/3/6 434/3/6 465/3/6
f 434/2/6 461/2/6 466/2/6
f 465/3/6 434/3/6 466/3/6
f 461/3/6 462/3/6 467/3/6
f 466/2/6 461/2/6 467/2/6
f 462/2/6 463/2/6 468/2/6
f 467/3/6 462/3/6 468/3/6
f 463/3/6 464/3/6 469/3/6
f 468/2/6 463/2/6 469/2/6
f 464/2/6 443/2/6 470/2/6
f 469/3/6 464/3/6 470/3/6
f 443/3/6 444/3/6 471/3/6
f 470/2/6 443/2/6 471/2/6
f 471/3/6 444/3/6 472/3/6
