# MagicaVoxel @ Ephtracy

# material
mtllib MainCharSkelly.mtl
usemtl palette

# normals
vn -1 0 0
vn 1 0 0
vn 0 0 1
vn 0 0 -1
vn 0 -1 0
vn 0 1 0

# texcoords
vt 0.970703 0.5
vt 0.978516 0.5
vt 0.982422 0.5
vt 0.986328 0.5

# verts
v -7 7 1
v -7 7 -0
v -7 9 1
v -7 9 -0
v -6 7 2
v -6 7 1
v -6 9 2
v -6 9 1
v -4 7 -0
v -4 7 -1
v -4 9 -0
v -4 9 -1
v -4 10 2
v -4 10 -2
v -4 11 3
v -4 11 2
v -4 11 -2
v -4 11 -3
v -4 15 3
v -4 15 2
v -4 15 -2
v -4 15 -3
v -4 16 2
v -4 16 -2
v -3 0 2
v -3 0 -1
v -3 2 2
v -3 2 -1
v -3 4 3
v -3 4 2
v -3 4 -1
v -3 4 -2
v -3 7 3
v -3 7 2
v -3 7 1
v -3 7 -1
v -3 7 -2
v -3 9 3
v -3 9 2
v -3 9 -1
v -3 9 -2
v -3 10 3
v -3 10 2
v -3 10 -2
v -3 10 -3
v -3 11 3
v -3 11 2
v -3 11 -2
v -3 11 -3
v -3 15 3
v -3 15 2
v -3 15 -2
v -3 15 -3
v -3 16 3
v -3 16 2
v -3 16 -2
v -3 16 -3
v -2 9 2
v -2 9 1
v -2 9 -1
v -2 9 -2
v -2 10 2
v -2 10 -2
v -1 13 3
v -1 13 2
v -1 14 2
v -1 15 3
v -1 15 2
v 1 0 2
v 1 0 -1
v 1 2 2
v 1 2 -1
v 1 4 2
v 1 4 -1
v 1 12 3
v 1 12 2
v 1 13 3
v 1 13 2
v 3 13 3
v 3 13 2
v 3 15 3
v 3 15 2
v -3 13 3
v -3 13 2
v -3 15 3
v -3 15 2
v -1 0 2
v -1 0 -1
v -1 2 2
v -1 2 -1
v -1 4 2
v -1 4 -1
v -1 12 3
v -1 12 2
v -1 13 3
v -1 13 2
v 1 13 3
v 1 13 2
v 1 14 2
v 1 15 3
v 1 15 2
v 2 9 2
v 2 9 1
v 2 9 -1
v 2 9 -2
v 2 10 2
v 2 10 -2
v 3 0 2
v 3 0 -1
v 3 2 2
v 3 2 -1
v 3 4 3
v 3 4 2
v 3 4 -1
v 3 4 -2
v 3 7 3
v 3 7 2
v 3 7 1
v 3 7 -1
v 3 7 -2
v 3 9 3
v 3 9 2
v 3 9 -1
v 3 9 -2
v 3 10 3
v 3 10 2
v 3 10 -2
v 3 10 -3
v 3 11 3
v 3 11 2
v 3 11 -2
v 3 11 -3
v 3 15 3
v 3 15 2
v 3 15 -2
v 3 15 -3
v 3 16 3
v 3 16 2
v 3 16 -2
v 3 16 -3
v 4 7 -0
v 4 7 -1
v 4 9 -0
v 4 9 -1
v 4 10 2
v 4 10 -2
v 4 11 3
v 4 11 2
v 4 11 -2
v 4 11 -3
v 4 15 3
v 4 15 2
v 4 15 -2
v 4 15 -3
v 4 16 2
v 4 16 -2
v 6 7 2
v 6 7 1
v 6 9 2
v 6 9 1
v 7 7 1
v 7 7 -0
v 7 9 1
v 7 9 -0
v -4 11 3
v -4 15 3
v -3 4 3
v -3 7 3
v -3 9 3
v -3 10 3
v -3 11 3
v -3 13 3
v -3 15 3
v -3 16 3
v -2 5 3
v -2 7 3
v -2 10 3
v -2 11 3
v -1 4 3
v -1 5 3
v -1 6 3
v -1 7 3
v -1 9 3
v -1 10 3
v -1 11 3
v -1 12 3
v -1 13 3
v -1 15 3
v 0 10 3
v 0 11 3
v 1 4 3
v 1 5 3
v 1 6 3
v 1 7 3
v 1 9 3
v 1 10 3
v 1 11 3
v 1 12 3
v 1 13 3
v 1 15 3
v 2 5 3
v 2 7 3
v 2 10 3
v 2 11 3
v 3 4 3
v 3 7 3
v 3 9 3
v 3 10 3
v 3 11 3
v 3 13 3
v 3 15 3
v 3 16 3
v 4 11 3
v 4 15 3
v -6 7 2
v -6 9 2
v -4 7 2
v -4 9 2
v -4 10 2
v -4 11 2
v -4 15 2
v -4 16 2
v -3 0 2
v -3 2 2
v -3 4 2
v -3 7 2
v -3 9 2
v -3 10 2
v -3 11 2
v -3 13 2
v -3 15 2
v -3 16 2
v -2 9 2
v -2 10 2
v -2 13 2
v -2 14 2
v -1 0 2
v -1 2 2
v -1 4 2
v -1 9 2
v -1 10 2
v -1 12 2
v -1 13 2
v -1 14 2
v -1 15 2
v 0 10 2
v 1 0 2
v 1 2 2
v 1 4 2
v 1 9 2
v 1 10 2
v 1 12 2
v 1 13 2
v 1 14 2
v 1 15 2
v 2 9 2
v 2 10 2
v 2 13 2
v 2 14 2
v 3 0 2
v 3 2 2
v 3 4 2
v 3 7 2
v 3 9 2
v 3 10 2
v 3 11 2
v 3 13 2
v 3 15 2
v 3 16 2
v 4 7 2
v 4 9 2
v 4 10 2
v 4 11 2
v 4 15 2
v 4 16 2
v 6 7 2
v 6 9 2
v -7 7 1
v -7 9 1
v -6 7 1
v -6 9 1
v 6 7 1
v 6 9 1
v 7 7 1
v 7 9 1
v -7 7 -0
v -7 9 -0
v -6 7 -0
v -6 9 -0
v -4 7 -0
v -4 9 -0
v 4 7 -0
v 4 9 -0
v 6 7 -0
v 6 9 -0
v 7 7 -0
v 7 9 -0
v -4 7 -1
v -4 9 -1
v -3 0 -1
v -3 2 -1
v -3 4 -1
v -3 7 -1
v -3 9 -1
v -1 0 -1
v -1 2 -1
v -1 4 -1
v 1 0 -1
v 1 2 -1
v 1 4 -1
v 3 0 -1
v 3 2 -1
v 3 4 -1
v 3 7 -1
v 3 9 -1
v 4 7 -1
v 4 9 -1
v -4 10 -2
v -4 11 -2
v -4 15 -2
v -4 16 -2
v -3 4 -2
v -3 7 -2
v -3 9 -2
v -3 10 -2
v -3 11 -2
v -3 15 -2
v -3 16 -2
v -2 5 -2
v -2 7 -2
v -2 9 -2
v -2 10 -2
v 2 5 -2
v 2 7 -2
v 2 9 -2
v 2 10 -2
v 3 4 -2
v 3 7 -2
v 3 9 -2
v 3 10 -2
v 3 11 -2
v 3 15 -2
v 3 16 -2
v 4 10 -2
v 4 11 -2
v 4 15 -2
v 4 16 -2
v -4 11 -3
v -4 15 -3
v -3 10 -3
v -3 11 -3
v -3 15 -3
v -3 16 -3
v 3 10 -3
v 3 11 -3
v 3 15 -3
v 3 16 -3
v 4 11 -3
v 4 15 -3
v -3 0 2
v -1 0 2
v 1 0 2
v 3 0 2
v -3 0 -1
v -1 0 -1
v 1 0 -1
v 3 0 -1
v -3 4 3
v -1 4 3
v 1 4 3
v 3 4 3
v -3 4 2
v -1 4 2
v 1 4 2
v 3 4 2
v -3 4 -1
v -1 4 -1
v 1 4 -1
v 3 4 -1
v -3 4 -2
v 3 4 -2
v -6 7 2
v -4 7 2
v -3 7 2
v 3 7 2
v 4 7 2
v 6 7 2
v -7 7 1
v -6 7 1
v -4 7 1
v -3 7 1
v 3 7 1
v 4 7 1
v 6 7 1
v 7 7 1
v -7 7 -0
v -6 7 -0
v -4 7 -0
v 4 7 -0
v 6 7 -0
v 7 7 -0
v -4 7 -1
v -3 7 -1
v 3 7 -1
v 4 7 -1
v -3 10 3
v -2 10 3
v -1 10 3
v 0 10 3
v 1 10 3
v 2 10 3
v 3 10 3
v -4 10 2
v -3 10 2
v -2 10 2
v -1 10 2
v 0 10 2
v 1 10 2
v 2 10 2
v 3 10 2
v 4 10 2
v -4 10 -2
v -3 10 -2
v -2 10 -2
v 2 10 -2
v 3 10 -2
v 4 10 -2
v -3 10 -3
v 3 10 -3
v -4 11 3
v -3 11 3
v 3 11 3
v 4 11 3
v -4 11 2
v -3 11 2
v 3 11 2
v 4 11 2
v -4 11 -2
v -3 11 -2
v 3 11 -2
v 4 11 -2
v -4 11 -3
v -3 11 -3
v 3 11 -3
v 4 11 -3
v -1 13 3
v 1 13 3
v -1 13 2
v 1 13 2
v -3 15 3
v -1 15 3
v 1 15 3
v 3 15 3
v -3 15 2
v -1 15 2
v 1 15 2
v 3 15 2
v -3 9 3
v -1 9 3
v 1 9 3
v 3 9 3
v -6 9 2
v -4 9 2
v -3 9 2
v -2 9 2
v -1 9 2
v 1 9 2
v 2 9 2
v 3 9 2
v 4 9 2
v 6 9 2
v -7 9 1
v -6 9 1
v -4 9 1
v -2 9 1
v 2 9 1
v 4 9 1
v 6 9 1
v 7 9 1
v -7 9 -0
v -6 9 -0
v -4 9 -0
v 4 9 -0
v 6 9 -0
v 7 9 -0
v -4 9 -1
v -3 9 -1
v -2 9 -1
v 2 9 -1
v 3 9 -1
v 4 9 -1
v -3 9 -2
v -2 9 -2
v 2 9 -2
v 3 9 -2
v -1 12 3
v 1 12 3
v -1 12 2
v 1 12 2
v -3 13 3
v -1 13 3
v 1 13 3
v 3 13 3
v -3 13 2
v -2 13 2
v -1 13 2
v 1 13 2
v 2 13 2
v 3 13 2
v -4 15 3
v -3 15 3
v 3 15 3
v 4 15 3
v -4 15 2
v -3 15 2
v 3 15 2
v 4 15 2
v -4 15 -2
v -3 15 -2
v 3 15 -2
v 4 15 -2
v -4 15 -3
v -3 15 -3
v 3 15 -3
v 4 15 -3
v -3 16 3
v 3 16 3
v -4 16 2
v -3 16 2
v 3 16 2
v 4 16 2
v -4 16 -2
v -3 16 -2
v 3 16 -2
v 4 16 -2
v -3 16 -3
v 3 16 -3

# faces
f 3/3/1 2/3/1 1/3/1
f 4/3/1 2/3/1 3/3/1
f 7/2/1 6/2/1 5/2/1
f 8/2/1 6/2/1 7/2/1
f 11/2/1 10/2/1 9/2/1
f 12/2/1 10/2/1 11/2/1
f 16/3/1 14/3/1 13/3/1
f 17/3/1 14/3/1 16/3/1
f 19/3/1 16/3/1 15/3/1
f 19/3/1 18/3/1 17/3/1
f 19/3/1 17/3/1 16/3/1
f 20/3/1 18/3/1 19/3/1
f 21/3/1 18/3/1 20/3/1
f 22/3/1 18/3/1 21/3/1
f 23/3/1 21/3/1 20/3/1
f 24/3/1 21/3/1 23/3/1
f 27/2/1 26/2/1 25/2/1
f 28/2/1 26/2/1 27/2/1
f 30/1/1 28/1/1 27/1/1
f 31/1/1 28/1/1 30/1/1
f 33/2/1 31/2/1 30/2/1
f 33/2/1 32/2/1 31/2/1
f 33/2/1 30/2/1 29/2/1
f 34/2/1 32/2/1 33/2/1
f 35/2/1 32/2/1 34/2/1
f 36/2/1 32/2/1 35/2/1
f 37/2/1 32/2/1 36/2/1
f 38/1/1 34/1/1 33/1/1
f 39/1/1 34/1/1 38/1/1
f 40/1/1 37/1/1 36/1/1
f 41/1/1 37/1/1 40/1/1
f 46/3/1 43/3/1 42/3/1
f 47/3/1 43/3/1 46/3/1
f 48/3/1 45/3/1 44/3/1
f 49/3/1 45/3/1 48/3/1
f 54/3/1 51/3/1 50/3/1
f 55/3/1 51/3/1 54/3/1
f 56/3/1 53/3/1 52/3/1
f 57/3/1 53/3/1 56/3/1
f 62/3/1 59/3/1 58/3/1
f 62/3/1 61/3/1 60/3/1
f 62/3/1 60/3/1 59/3/1
f 63/3/1 61/3/1 62/3/1
f 66/3/1 65/3/1 64/3/1
f 67/3/1 66/3/1 64/3/1
f 68/3/1 66/3/1 67/3/1
f 71/2/1 70/2/1 69/2/1
f 72/2/1 70/2/1 71/2/1
f 73/1/1 72/1/1 71/1/1
f 74/1/1 72/1/1 73/1/1
f 77/3/1 76/3/1 75/3/1
f 78/3/1 76/3/1 77/3/1
f 81/3/1 80/3/1 79/3/1
f 82/3/1 80/3/1 81/3/1
f 83/3/2 84/3/2 85/3/2
f 85/3/2 84/3/2 86/3/2
f 87/2/2 88/2/2 89/2/2
f 89/2/2 88/2/2 90/2/2
f 89/1/2 90/1/2 91/1/2
f 91/1/2 90/1/2 92/1/2
f 93/3/2 94/3/2 95/3/2
f 95/3/2 94/3/2 96/3/2
f 97/3/2 98/3/2 99/3/2
f 97/3/2 99/3/2 100/3/2
f 100/3/2 99/3/2 101/3/2
f 102/3/2 103/3/2 106/3/2
f 104/3/2 105/3/2 106/3/2
f 103/3/2 104/3/2 106/3/2
f 106/3/2 105/3/2 107/3/2
f 108/2/2 109/2/2 110/2/2
f 110/2/2 109/2/2 111/2/2
f 110/1/2 111/1/2 113/1/2
f 113/1/2 111/1/2 114/1/2
f 113/2/2 114/2/2 116/2/2
f 114/2/2 115/2/2 116/2/2
f 112/2/2 113/2/2 116/2/2
f 116/2/2 115/2/2 117/2/2
f 117/2/2 115/2/2 118/2/2
f 118/2/2 115/2/2 119/2/2
f 119/2/2 115/2/2 120/2/2
f 116/1/2 117/1/2 121/1/2
f 121/1/2 117/1/2 122/1/2
f 119/1/2 120/1/2 123/1/2
f 123/1/2 120/1/2 124/1/2
f 125/2/2 126/2/2 129/2/2
f 129/2/2 126/2/2 130/2/2
f 127/3/2 128/3/2 131/3/2
f 131/3/2 128/3/2 132/3/2
f 133/3/2 134/3/2 137/3/2
f 137/3/2 134/3/2 138/3/2
f 135/3/2 136/3/2 139/3/2
f 139/3/2 136/3/2 140/3/2
f 141/2/2 142/2/2 143/2/2
f 143/2/2 142/2/2 144/2/2
f 145/3/2 146/3/2 148/3/2
f 148/3/2 146/3/2 149/3/2
f 147/3/2 148/3/2 151/3/2
f 149/3/2 150/3/2 151/3/2
f 148/3/2 149/3/2 151/3/2
f 151/3/2 150/3/2 152/3/2
f 152/3/2 150/3/2 153/3/2
f 153/3/2 150/3/2 154/3/2
f 152/3/2 153/3/2 155/3/2
f 155/3/2 153/3/2 156/3/2
f 157/2/2 158/2/2 159/2/2
f 159/2/2 158/2/2 160/2/2
f 161/3/2 162/3/2 163/3/2
f 163/3/2 162/3/2 164/3/2
f 171/3/3 166/3/3 165/3/3
f 172/3/3 166/3/3 171/3/3
f 173/3/3 166/3/3 172/3/3
f 175/2/3 168/2/3 167/2/3
f 176/1/3 169/1/3 168/1/3
f 176/2/3 168/2/3 175/2/3
f 177/3/3 171/3/3 170/3/3
f 177/3/3 172/3/3 171/3/3
f 178/3/3 172/3/3 177/3/3
f 179/2/3 175/2/3 167/2/3
f 180/1/3 176/1/3 175/1/3
f 180/2/3 175/2/3 179/2/3
f 181/1/3 176/1/3 180/1/3
f 182/1/3 169/1/3 176/1/3
f 182/1/3 176/1/3 181/1/3
f 183/1/3 169/1/3 182/1/3
f 184/2/3 178/2/3 177/2/3
f 185/3/3 172/3/3 178/3/3
f 185/2/3 178/2/3 184/2/3
f 186/3/3 172/3/3 185/3/3
f 187/3/3 172/3/3 186/3/3
f 188/3/3 174/3/3 173/3/3
f 189/3/3 185/3/3 184/3/3
f 189/3/3 186/3/3 185/3/3
f 190/3/3 186/3/3 189/3/3
f 191/1/3 180/1/3 179/1/3
f 192/2/3 181/2/3 180/2/3
f 192/1/3 180/1/3 191/1/3
f 193/1/3 182/1/3 181/1/3
f 193/2/3 181/2/3 192/2/3
f 194/2/3 183/2/3 182/2/3
f 194/1/3 182/1/3 193/1/3
f 195/2/3 183/2/3 194/2/3
f 196/2/3 190/2/3 189/2/3
f 197/3/3 186/3/3 190/3/3
f 197/2/3 190/2/3 196/2/3
f 198/3/3 186/3/3 197/3/3
f 199/3/3 188/3/3 187/3/3
f 200/3/3 174/3/3 188/3/3
f 200/3/3 188/3/3 199/3/3
f 201/1/3 193/1/3 192/1/3
f 201/2/3 192/2/3 191/2/3
f 201/1/3 195/1/3 194/1/3
f 201/1/3 194/1/3 193/1/3
f 202/1/3 195/1/3 201/1/3
f 203/3/3 198/3/3 197/3/3
f 203/3/3 199/3/3 198/3/3
f 203/3/3 197/3/3 196/3/3
f 204/3/3 199/3/3 203/3/3
f 205/2/3 202/2/3 201/2/3
f 205/2/3 201/2/3 191/2/3
f 206/1/3 195/1/3 202/1/3
f 206/2/3 202/2/3 205/2/3
f 207/1/3 195/1/3 206/1/3
f 208/2/3 204/2/3 203/2/3
f 209/3/3 199/3/3 204/3/3
f 209/2/3 204/2/3 208/2/3
f 210/3/3 199/3/3 209/3/3
f 211/3/3 174/3/3 200/3/3
f 212/3/3 174/3/3 211/3/3
f 213/3/3 210/3/3 209/3/3
f 213/3/3 211/3/3 210/3/3
f 214/3/3 211/3/3 213/3/3
f 217/2/3 216/2/3 215/2/3
f 218/2/3 216/2/3 217/2/3
f 226/1/3 218/1/3 217/1/3
f 227/1/3 218/1/3 226/1/3
f 228/3/3 220/3/3 219/3/3
f 229/3/3 220/3/3 228/3/3
f 231/3/3 222/3/3 221/3/3
f 232/3/3 222/3/3 231/3/3
f 235/4/3 231/4/3 230/4/3
f 236/4/3 231/4/3 235/4/3
f 237/2/3 224/2/3 223/2/3
f 238/1/3 225/1/3 224/1/3
f 238/2/3 224/2/3 237/2/3
f 239/1/3 225/1/3 238/1/3
f 240/3/3 234/3/3 233/3/3
f 241/3/3 234/3/3 240/3/3
f 243/1/3 236/1/3 235/1/3
f 244/4/3 231/4/3 236/4/3
f 244/1/3 236/1/3 243/1/3
f 245/4/3 231/4/3 244/4/3
f 246/3/3 241/3/3 240/3/3
f 250/3/3 246/3/3 240/3/3
f 251/3/3 246/3/3 250/3/3
f 252/2/3 243/2/3 242/2/3
f 253/2/3 243/2/3 252/2/3
f 256/3/3 251/3/3 250/3/3
f 257/3/3 251/3/3 256/3/3
f 258/1/3 254/1/3 253/1/3
f 259/4/3 255/4/3 254/4/3
f 259/1/3 254/1/3 258/1/3
f 260/2/3 248/2/3 247/2/3
f 261/1/3 249/1/3 248/1/3
f 261/2/3 248/2/3 260/2/3
f 262/1/3 249/1/3 261/1/3
f 267/4/3 259/4/3 258/4/3
f 268/4/3 255/4/3 259/4/3
f 268/4/3 259/4/3 267/4/3
f 270/1/3 264/1/3 263/1/3
f 271/1/3 264/1/3 270/1/3
f 272/3/3 266/3/3 265/3/3
f 273/3/3 266/3/3 272/3/3
f 274/3/3 269/3/3 268/3/3
f 275/3/3 269/3/3 274/3/3
f 276/2/3 271/2/3 270/2/3
f 277/2/3 271/2/3 276/2/3
f 280/3/3 279/3/3 278/3/3
f 281/3/3 279/3/3 280/3/3
f 284/3/3 283/3/3 282/3/3
f 285/3/3 283/3/3 284/3/3
f 286/3/4 287/3/4 288/3/4
f 288/3/4 287/3/4 289/3/4
f 288/2/4 289/2/4 290/2/4
f 290/2/4 289/2/4 291/2/4
f 292/2/4 293/2/4 294/2/4
f 294/2/4 293/2/4 295/2/4
f 294/3/4 295/3/4 296/3/4
f 296/3/4 295/3/4 297/3/4
f 298/2/4 299/2/4 303/2/4
f 303/2/4 299/2/4 304/2/4
f 300/2/4 301/2/4 305/2/4
f 301/1/4 302/1/4 306/1/4
f 305/2/4 301/2/4 306/2/4
f 306/1/4 302/1/4 307/1/4
f 308/2/4 309/2/4 311/2/4
f 309/1/4 310/1/4 312/1/4
f 311/2/4 309/2/4 312/2/4
f 312/1/4 310/1/4 313/1/4
f 314/2/4 315/2/4 316/2/4
f 316/2/4 315/2/4 317/2/4
f 318/3/4 319/3/4 325/3/4
f 325/3/4 319/3/4 326/3/4
f 320/3/4 321/3/4 327/3/4
f 327/3/4 321/3/4 328/3/4
f 322/2/4 323/2/4 329/2/4
f 323/1/4 324/1/4 330/1/4
f 329/2/4 323/2/4 330/2/4
f 330/1/4 324/1/4 331/1/4
f 322/2/4 329/2/4 333/2/4
f 329/1/4 330/1/4 333/1/4
f 330/1/4 331/1/4 333/1/4
f 333/1/4 331/1/4 334/1/4
f 331/3/4 332/3/4 335/3/4
f 334/1/4 331/1/4 335/1/4
f 335/3/4 332/3/4 336/3/4
f 333/2/4 334/2/4 337/2/4
f 322/2/4 333/2/4 337/2/4
f 334/1/4 335/1/4 338/1/4
f 337/2/4 334/2/4 338/2/4
f 338/1/4 335/1/4 339/1/4
f 340/3/4 341/3/4 344/3/4
f 344/3/4 341/3/4 345/3/4
f 342/3/4 343/3/4 346/3/4
f 346/3/4 343/3/4 347/3/4
f 348/3/4 349/3/4 351/3/4
f 351/3/4 349/3/4 352/3/4
f 350/3/4 351/3/4 354/3/4
f 352/3/4 353/3/4 354/3/4
f 351/3/4 352/3/4 354/3/4
f 354/3/4 353/3/4 355/3/4
f 355/3/4 353/3/4 356/3/4
f 356/3/4 353/3/4 357/3/4
f 355/3/4 356/3/4 358/3/4
f 358/3/4 356/3/4 359/3/4
f 364/2/5 361/2/5 360/2/5
f 365/2/5 361/2/5 364/2/5
f 366/2/5 363/2/5 362/2/5
f 367/2/5 363/2/5 366/2/5
f 372/2/5 369/2/5 368/2/5
f 373/1/5 370/1/5 369/1/5
f 373/2/5 369/2/5 372/2/5
f 374/2/5 371/2/5 370/2/5
f 374/1/5 370/1/5 373/1/5
f 375/2/5 371/2/5 374/2/5
f 377/1/5 374/1/5 373/1/5
f 378/1/5 374/1/5 377/1/5
f 380/2/5 377/2/5 376/2/5
f 380/2/5 379/2/5 378/2/5
f 380/2/5 378/2/5 377/2/5
f 381/2/5 379/2/5 380/2/5
f 389/2/5 383/2/5 382/2/5
f 390/1/5 384/1/5 383/1/5
f 390/2/5 383/2/5 389/2/5
f 391/1/5 384/1/5 390/1/5
f 392/1/5 386/1/5 385/1/5
f 393/2/5 387/2/5 386/2/5
f 393/1/5 386/1/5 392/1/5
f 394/2/5 387/2/5 393/2/5
f 396/3/5 389/3/5 388/3/5
f 397/2/5 391/2/5 390/2/5
f 397/3/5 389/3/5 396/3/5
f 397/2/5 390/2/5 389/2/5
f 398/2/5 391/2/5 397/2/5
f 399/2/5 394/2/5 393/2/5
f 399/2/5 393/2/5 392/2/5
f 400/3/5 395/3/5 394/3/5
f 400/2/5 394/2/5 399/2/5
f 401/3/5 395/3/5 400/3/5
f 402/2/5 391/2/5 398/2/5
f 403/2/5 391/2/5 402/2/5
f 404/2/5 399/2/5 392/2/5
f 405/2/5 399/2/5 404/2/5
f 414/3/5 407/3/5 406/3/5
f 415/2/5 408/2/5 407/2/5
f 415/3/5 407/3/5 414/3/5
f 416/3/5 409/3/5 408/3/5
f 416/2/5 408/2/5 415/2/5
f 417/2/5 410/2/5 409/2/5
f 417/3/5 409/3/5 416/3/5
f 418/3/5 411/3/5 410/3/5
f 418/2/5 410/2/5 417/2/5
f 419/2/5 412/2/5 411/2/5
f 419/3/5 411/3/5 418/3/5
f 420/2/5 412/2/5 419/2/5
f 422/3/5 414/3/5 413/3/5
f 422/3/5 415/3/5 414/3/5
f 423/3/5 415/3/5 422/3/5
f 424/3/5 415/3/5 423/3/5
f 425/3/5 421/3/5 420/3/5
f 425/3/5 420/3/5 419/3/5
f 426/3/5 421/3/5 425/3/5
f 427/3/5 421/3/5 426/3/5
f 428/3/5 424/3/5 423/3/5
f 428/3/5 426/3/5 425/3/5
f 428/3/5 425/3/5 424/3/5
f 429/3/5 426/3/5 428/3/5
f 434/3/5 431/3/5 430/3/5
f 435/3/5 431/3/5 434/3/5
f 436/3/5 433/3/5 432/3/5
f 437/3/5 433/3/5 436/3/5
f 442/3/5 439/3/5 438/3/5
f 443/3/5 439/3/5 442/3/5
f 444/3/5 441/3/5 440/3/5
f 445/3/5 441/3/5 444/3/5
f 448/3/5 447/3/5 446/3/5
f 449/3/5 447/3/5 448/3/5
f 454/3/5 451/3/5 450/3/5
f 455/3/5 451/3/5 454/3/5
f 456/3/5 453/3/5 452/3/5
f 457/3/5 453/3/5 456/3/5
f 458/1/6 459/1/6 464/1/6
f 464/1/6 459/1/6 465/1/6
f 459/2/6 460/2/6 466/2/6
f 465/1/6 459/1/6 466/1/6
f 460/1/6 461/1/6 467/1/6
f 466/2/6 460/2/6 467/2/6
f 467/1/6 461/1/6 468/1/6
f 468/1/6 461/1/6 469/1/6
f 462/2/6 463/2/6 473/2/6
f 464/1/6 465/1/6 474/1/6
f 463/1/6 464/1/6 474/1/6
f 473/2/6 463/2/6 474/2/6
f 474/1/6 465/1/6 475/1/6
f 468/1/6 469/1/6 476/1/6
f 469/1/6 470/1/6 476/1/6
f 470/2/6 471/2/6 477/2/6
f 476/1/6 470/1/6 477/1/6
f 477/2/6 471/2/6 478/2/6
f 472/3/6 473/3/6 480/3/6
f 474/2/6 475/2/6 481/2/6
f 480/3/6 473/3/6 481/3/6
f 473/2/6 474/2/6 481/2/6
f 481/2/6 475/2/6 482/2/6
f 477/2/6 478/2/6 483/2/6
f 476/2/6 477/2/6 483/2/6
f 478/3/6 479/3/6 484/3/6
f 483/2/6 478/2/6 484/2/6
f 484/3/6 479/3/6 485/3/6
f 482/2/6 475/2/6 486/2/6
f 486/2/6 475/2/6 487/2/6
f 487/2/6 475/2/6 488/2/6
f 476/2/6 483/2/6 489/2/6
f 489/2/6 483/2/6 490/2/6
f 490/2/6 483/2/6 491/2/6
f 487/1/6 488/1/6 492/1/6
f 492/1/6 488/1/6 493/1/6
f 489/1/6 490/1/6 494/1/6
f 494/1/6 490/1/6 495/1/6
f 496/3/6 497/3/6 498/3/6
f 498/3/6 497/3/6 499/3/6
f 500/3/6 501/3/6 504/3/6
f 504/3/6 501/3/6 505/3/6
f 505/3/6 501/3/6 506/3/6
f 502/3/6 503/3/6 507/3/6
f 507/3/6 503/3/6 508/3/6
f 508/3/6 503/3/6 509/3/6
f 510/3/6 511/3/6 514/3/6
f 514/3/6 511/3/6 515/3/6
f 512/3/6 513/3/6 516/3/6
f 516/3/6 513/3/6 517/3/6
f 518/3/6 519/3/6 522/3/6
f 522/3/6 519/3/6 523/3/6
f 520/3/6 521/3/6 524/3/6
f 524/3/6 521/3/6 525/3/6
f 526/3/6 527/3/6 529/3/6
f 529/3/6 527/3/6 530/3/6
f 528/3/6 529/3/6 532/3/6
f 530/3/6 531/3/6 532/3/6
f 529/3/6 530/3/6 532/3/6
f 532/3/6 531/3/6 533/3/6
f 533/3/6 531/3/6 534/3/6
f 534/3/6 531/3/6 535/3/6
f 533/3/6 534/3/6 536/3/6
f 536/3/6 534/3/6 537/3/6
