# MagicaVoxel @ Ephtracy

# material
mtllib turret1.mtl
usemtl palette

# normals
vn -1 0 0
vn 1 0 0
vn 0 0 1
vn 0 0 -1
vn 0 -1 0
vn 0 1 0

# texcoords
vt 0.970703 0.5
vt 0.974609 0.5

# verts
v -8 0 8
v -8 0 -8
v -8 2 8
v -8 2 -8
v -6 2 6
v -6 2 -5
v -6 3 6
v -6 3 -5
v -4 3 4
v -4 3 -3
v -4 4 4
v -4 4 -3
v -2 4 2
v -2 4 1
v -2 5 3
v -2 5 2
v -2 5 1
v -2 5 -1
v -2 8 3
v -2 8 -1
v -2 9 3
v -2 9 -1
v -2 10 2
v -2 10 -1
v -2 11 1
v -2 11 -1
v -2 21 1
v -2 21 -1
v -2 22 2
v -2 22 -1
v -2 23 3
v -2 23 -1
v -2 24 3
v -2 24 -1
v -2 26 3
v -2 26 -1
v -2 27 2
v -2 27 -0
v -2 28 3
v -2 28 2
v -2 28 -0
v -2 28 -1
v -2 31 3
v -2 31 2
v -2 31 -0
v -2 31 -1
v -2 32 2
v -2 32 -0
v -1 0 3
v -1 0 2
v -1 0 -2
v -1 0 -3
v -1 1 3
v -1 1 2
v -1 1 -2
v -1 1 -3
v -1 4 3
v -1 4 2
v -1 4 1
v -1 4 -1
v -1 5 3
v -1 5 2
v -1 5 1
v -1 5 -1
v -1 8 3
v -1 8 -1
v -1 9 3
v -1 9 -1
v -1 10 2
v -1 10 1
v -1 11 1
v -1 21 1
v -1 22 2
v -1 22 1
v -1 23 3
v -1 23 -1
v -1 24 3
v -1 24 -1
v -1 27 3
v -1 27 2
v -1 27 -0
v -1 27 -1
v -1 28 3
v -1 28 2
v -1 28 -0
v -1 28 -1
v -1 31 3
v -1 31 2
v -1 31 -0
v -1 31 -1
v -1 32 3
v -1 32 2
v -1 32 -0
v -1 32 -1
v 1 10 3
v 1 10 2
v 1 11 1
v 1 11 -1
v 1 21 1
v 1 21 -1
v 1 22 3
v 1 22 2
v 2 0 3
v 2 0 2
v 2 0 -2
v 2 0 -3
v 2 1 3
v 2 1 2
v 2 1 -2
v 2 1 -3
v -2 0 3
v -2 0 2
v -2 0 -2
v -2 0 -3
v -2 1 3
v -2 1 2
v -2 1 -2
v -2 1 -3
v -1 10 3
v -1 10 2
v -1 11 1
v -1 11 -1
v -1 21 1
v -1 21 -1
v -1 22 3
v -1 22 2
v 1 0 3
v 1 0 2
v 1 0 -2
v 1 0 -3
v 1 1 3
v 1 1 2
v 1 1 -2
v 1 1 -3
v 1 4 3
v 1 4 2
v 1 4 1
v 1 4 -1
v 1 5 3
v 1 5 2
v 1 5 1
v 1 5 -1
v 1 8 3
v 1 8 -1
v 1 9 3
v 1 9 -1
v 1 10 2
v 1 10 1
v 1 11 1
v 1 21 1
v 1 22 2
v 1 22 1
v 1 23 3
v 1 23 -1
v 1 24 3
v 1 24 -1
v 1 27 3
v 1 27 2
v 1 27 -0
v 1 27 -1
v 1 28 3
v 1 28 2
v 1 28 -0
v 1 28 -1
v 1 31 3
v 1 31 2
v 1 31 -0
v 1 31 -1
v 1 32 3
v 1 32 2
v 1 32 -0
v 1 32 -1
v 2 4 2
v 2 4 1
v 2 5 3
v 2 5 2
v 2 5 1
v 2 5 -1
v 2 8 3
v 2 8 -1
v 2 9 3
v 2 9 -1
v 2 10 2
v 2 10 -1
v 2 11 1
v 2 11 -1
v 2 21 1
v 2 21 -1
v 2 22 2
v 2 22 -1
v 2 23 3
v 2 23 -1
v 2 24 3
v 2 24 -1
v 2 26 3
v 2 26 -1
v 2 27 2
v 2 27 -0
v 2 28 3
v 2 28 2
v 2 28 -0
v 2 28 -1
v 2 31 3
v 2 31 2
v 2 31 -0
v 2 31 -1
v 2 32 2
v 2 32 -0
v 4 3 4
v 4 3 -3
v 4 4 4
v 4 4 -3
v 6 2 6
v 6 2 -5
v 6 3 6
v 6 3 -5
v 8 0 8
v 8 0 -8
v 8 2 8
v 8 2 -8
v -8 0 8
v -8 2 8
v 8 0 8
v 8 2 8
v -6 2 6
v -6 3 6
v 6 2 6
v 6 3 6
v -4 3 4
v -4 4 4
v 4 3 4
v 4 4 4
v -2 5 3
v -2 8 3
v -2 9 3
v -2 23 3
v -2 24 3
v -2 26 3
v -2 28 3
v -2 31 3
v -1 4 3
v -1 5 3
v -1 8 3
v -1 9 3
v -1 10 3
v -1 22 3
v -1 23 3
v -1 24 3
v -1 27 3
v -1 28 3
v -1 31 3
v -1 32 3
v 1 4 3
v 1 5 3
v 1 8 3
v 1 9 3
v 1 10 3
v 1 22 3
v 1 23 3
v 1 24 3
v 1 27 3
v 1 28 3
v 1 31 3
v 1 32 3
v 2 5 3
v 2 8 3
v 2 9 3
v 2 23 3
v 2 24 3
v 2 26 3
v 2 28 3
v 2 31 3
v -2 0 2
v -2 1 2
v -2 4 2
v -2 5 2
v -2 27 2
v -2 28 2
v -2 31 2
v -2 32 2
v -1 0 2
v -1 1 2
v -1 4 2
v -1 5 2
v -1 10 2
v -1 22 2
v -1 27 2
v -1 28 2
v -1 31 2
v -1 32 2
v 1 0 2
v 1 1 2
v 1 4 2
v 1 5 2
v 1 10 2
v 1 22 2
v 1 27 2
v 1 28 2
v 1 31 2
v 1 32 2
v 2 0 2
v 2 1 2
v 2 4 2
v 2 5 2
v 2 27 2
v 2 28 2
v 2 31 2
v 2 32 2
v -2 11 1
v -2 21 1
v -1 11 1
v -1 21 1
v 1 11 1
v 1 21 1
v 2 11 1
v 2 21 1
v -2 0 -3
v -2 1 -3
v -1 0 -3
v -1 1 -3
v 1 0 -3
v 1 1 -3
v 2 0 -3
v 2 1 -3
v -2 0 3
v -2 1 3
v -1 0 3
v -1 1 3
v 1 0 3
v 1 1 3
v 2 0 3
v 2 1 3
v -2 10 2
v -2 22 2
v -1 10 2
v -1 22 2
v 1 10 2
v 1 22 2
v 2 10 2
v 2 22 2
v -2 4 1
v -2 5 1
v -1 4 1
v -1 5 1
v -1 10 1
v -1 11 1
v -1 21 1
v -1 22 1
v 1 4 1
v 1 5 1
v 1 10 1
v 1 11 1
v 1 21 1
v 1 22 1
v 2 4 1
v 2 5 1
v -2 27 -0
v -2 28 -0
v -2 31 -0
v -2 32 -0
v -1 27 -0
v -1 28 -0
v -1 31 -0
v -1 32 -0
v 1 27 -0
v 1 28 -0
v 1 31 -0
v 1 32 -0
v 2 27 -0
v 2 28 -0
v 2 31 -0
v 2 32 -0
v -2 5 -1
v -2 8 -1
v -2 9 -1
v -2 10 -1
v -2 11 -1
v -2 21 -1
v -2 22 -1
v -2 23 -1
v -2 24 -1
v -2 26 -1
v -2 28 -1
v -2 31 -1
v -1 4 -1
v -1 5 -1
v -1 8 -1
v -1 9 -1
v -1 11 -1
v -1 21 -1
v -1 23 -1
v -1 24 -1
v -1 27 -1
v -1 28 -1
v -1 31 -1
v -1 32 -1
v 1 4 -1
v 1 5 -1
v 1 8 -1
v 1 9 -1
v 1 11 -1
v 1 21 -1
v 1 23 -1
v 1 24 -1
v 1 27 -1
v 1 28 -1
v 1 31 -1
v 1 32 -1
v 2 5 -1
v 2 8 -1
v 2 9 -1
v 2 10 -1
v 2 11 -1
v 2 21 -1
v 2 22 -1
v 2 23 -1
v 2 24 -1
v 2 26 -1
v 2 28 -1
v 2 31 -1
v -2 0 -2
v -2 1 -2
v -1 0 -2
v -1 1 -2
v 1 0 -2
v 1 1 -2
v 2 0 -2
v 2 1 -2
v -4 3 -3
v -4 4 -3
v 4 3 -3
v 4 4 -3
v -6 2 -5
v -6 3 -5
v 6 2 -5
v 6 3 -5
v -8 0 -8
v -8 2 -8
v 8 0 -8
v 8 2 -8
v -8 0 8
v 8 0 8
v -2 0 3
v -1 0 3
v 1 0 3
v 2 0 3
v -2 0 2
v -1 0 2
v 1 0 2
v 2 0 2
v -2 0 -2
v -1 0 -2
v 1 0 -2
v 2 0 -2
v -2 0 -3
v -1 0 -3
v 1 0 -3
v 2 0 -3
v -8 0 -8
v 8 0 -8
v -2 1 3
v -1 1 3
v 1 1 3
v 2 1 3
v -2 1 2
v -1 1 2
v 1 1 2
v 2 1 2
v -2 1 -2
v -1 1 -2
v 1 1 -2
v 2 1 -2
v -2 1 -3
v -1 1 -3
v 1 1 -3
v 2 1 -3
v -2 5 3
v -1 5 3
v 1 5 3
v 2 5 3
v -2 5 2
v -1 5 2
v 1 5 2
v 2 5 2
v -2 5 1
v -1 5 1
v 1 5 1
v 2 5 1
v -2 5 -1
v -1 5 -1
v 1 5 -1
v 2 5 -1
v -2 9 3
v -1 9 3
v 1 9 3
v 2 9 3
v -2 9 -1
v -1 9 -1
v 1 9 -1
v 2 9 -1
v -2 11 1
v -1 11 1
v 1 11 1
v 2 11 1
v -2 11 -1
v -1 11 -1
v 1 11 -1
v 2 11 -1
v -1 22 3
v 1 22 3
v -2 22 2
v -1 22 2
v 1 22 2
v 2 22 2
v -1 22 1
v 1 22 1
v -2 22 -1
v 2 22 -1
v -2 24 3
v -1 24 3
v 1 24 3
v 2 24 3
v -2 24 -1
v -1 24 -1
v 1 24 -1
v 2 24 -1
v -1 27 3
v 1 27 3
v -2 27 2
v -1 27 2
v 1 27 2
v 2 27 2
v -2 27 -0
v -1 27 -0
v 1 27 -0
v 2 27 -0
v -1 27 -1
v 1 27 -1
v -2 28 3
v -1 28 3
v 1 28 3
v 2 28 3
v -2 28 2
v -1 28 2
v 1 28 2
v 2 28 2
v -2 28 -0
v -1 28 -0
v 1 28 -0
v 2 28 -0
v -2 28 -1
v -1 28 -1
v 1 28 -1
v 2 28 -1
v -8 2 8
v 8 2 8
v -6 2 6
v 6 2 6
v -6 2 -5
v 6 2 -5
v -8 2 -8
v 8 2 -8
v -6 3 6
v 6 3 6
v -4 3 4
v 4 3 4
v -4 3 -3
v 4 3 -3
v -6 3 -5
v 6 3 -5
v -4 4 4
v 4 4 4
v -1 4 3
v 1 4 3
v -2 4 2
v -1 4 2
v 1 4 2
v 2 4 2
v -2 4 1
v -1 4 1
v 1 4 1
v 2 4 1
v -1 4 -1
v 1 4 -1
v -4 4 -3
v 4 4 -3
v -2 8 3
v -1 8 3
v 1 8 3
v 2 8 3
v -2 8 -1
v -1 8 -1
v 1 8 -1
v 2 8 -1
v -1 10 3
v 1 10 3
v -2 10 2
v -1 10 2
v 1 10 2
v 2 10 2
v -1 10 1
v 1 10 1
v -2 10 -1
v 2 10 -1
v -2 21 1
v -1 21 1
v 1 21 1
v 2 21 1
v -2 21 -1
v -1 21 -1
v 1 21 -1
v 2 21 -1
v -2 23 3
v -1 23 3
v 1 23 3
v 2 23 3
v -2 23 -1
v -1 23 -1
v 1 23 -1
v 2 23 -1
v -2 26 3
v 2 26 3
v -2 26 -1
v 2 26 -1
v -2 31 3
v -1 31 3
v 1 31 3
v 2 31 3
v -2 31 2
v -1 31 2
v 1 31 2
v 2 31 2
v -2 31 -0
v -1 31 -0
v 1 31 -0
v 2 31 -0
v -2 31 -1
v -1 31 -1
v 1 31 -1
v 2 31 -1
v -1 32 3
v 1 32 3
v -2 32 2
v -1 32 2
v 1 32 2
v 2 32 2
v -2 32 -0
v -1 32 -0
v 1 32 -0
v 2 32 -0
v -1 32 -1
v 1 32 -1

# faces
f 3/1/1 2/1/1 1/1/1
f 4/1/1 2/1/1 3/1/1
f 7/1/1 6/1/1 5/1/1
f 8/1/1 6/1/1 7/1/1
f 11/1/1 10/1/1 9/1/1
f 12/1/1 10/1/1 11/1/1
f 16/1/1 14/1/1 13/1/1
f 17/1/1 14/1/1 16/1/1
f 19/1/1 16/1/1 15/1/1
f 19/1/1 18/1/1 17/1/1
f 19/1/1 17/1/1 16/1/1
f 20/1/1 18/1/1 19/1/1
f 23/1/1 22/1/1 21/1/1
f 24/1/1 22/1/1 23/1/1
f 27/1/1 26/1/1 25/1/1
f 28/1/1 26/1/1 27/1/1
f 29/1/1 23/1/1 21/1/1
f 31/1/1 29/1/1 21/1/1
f 31/1/1 30/1/1 29/1/1
f 32/1/1 30/1/1 31/1/1
f 35/1/1 34/1/1 33/1/1
f 36/1/1 34/1/1 35/1/1
f 40/2/1 38/2/1 37/2/1
f 41/2/1 38/2/1 40/2/1
f 43/2/1 40/2/1 39/2/1
f 43/2/1 42/2/1 41/2/1
f 43/2/1 41/2/1 40/2/1
f 44/2/1 42/2/1 43/2/1
f 45/2/1 42/2/1 44/2/1
f 46/2/1 42/2/1 45/2/1
f 47/2/1 45/2/1 44/2/1
f 48/2/1 45/2/1 47/2/1
f 53/1/1 50/1/1 49/1/1
f 54/1/1 50/1/1 53/1/1
f 55/1/1 52/1/1 51/1/1
f 56/1/1 52/1/1 55/1/1
f 61/1/1 58/1/1 57/1/1
f 62/1/1 58/1/1 61/1/1
f 63/1/1 60/1/1 59/1/1
f 64/1/1 60/1/1 63/1/1
f 67/1/1 66/1/1 65/1/1
f 68/1/1 66/1/1 67/1/1
f 71/1/1 70/1/1 69/1/1
f 72/1/1 71/1/1 69/1/1
f 73/1/1 72/1/1 69/1/1
f 74/1/1 72/1/1 73/1/1
f 77/1/1 76/1/1 75/1/1
f 78/1/1 76/1/1 77/1/1
f 83/2/1 80/2/1 79/2/1
f 84/2/1 80/2/1 83/2/1
f 85/2/1 82/2/1 81/2/1
f 86/2/1 82/2/1 85/2/1
f 91/2/1 88/2/1 87/2/1
f 92/2/1 88/2/1 91/2/1
f 93/2/1 90/2/1 89/2/1
f 94/2/1 90/2/1 93/2/1
f 99/1/1 98/1/1 97/1/1
f 100/1/1 98/1/1 99/1/1
f 101/1/1 96/1/1 95/1/1
f 102/1/1 96/1/1 101/1/1
f 107/1/1 104/1/1 103/1/1
f 108/1/1 104/1/1 107/1/1
f 109/1/1 106/1/1 105/1/1
f 110/1/1 106/1/1 109/1/1
f 111/1/2 112/1/2 115/1/2
f 115/1/2 112/1/2 116/1/2
f 113/1/2 114/1/2 117/1/2
f 117/1/2 114/1/2 118/1/2
f 121/1/2 122/1/2 123/1/2
f 123/1/2 122/1/2 124/1/2
f 119/1/2 120/1/2 125/1/2
f 125/1/2 120/1/2 126/1/2
f 127/1/2 128/1/2 131/1/2
f 131/1/2 128/1/2 132/1/2
f 129/1/2 130/1/2 133/1/2
f 133/1/2 130/1/2 134/1/2
f 135/1/2 136/1/2 139/1/2
f 139/1/2 136/1/2 140/1/2
f 137/1/2 138/1/2 141/1/2
f 141/1/2 138/1/2 142/1/2
f 143/1/2 144/1/2 145/1/2
f 145/1/2 144/1/2 146/1/2
f 147/1/2 148/1/2 149/1/2
f 147/1/2 149/1/2 150/1/2
f 147/1/2 150/1/2 151/1/2
f 151/1/2 150/1/2 152/1/2
f 153/1/2 154/1/2 155/1/2
f 155/1/2 154/1/2 156/1/2
f 157/2/2 158/2/2 161/2/2
f 161/2/2 158/2/2 162/2/2
f 159/2/2 160/2/2 163/2/2
f 163/2/2 160/2/2 164/2/2
f 165/2/2 166/2/2 169/2/2
f 169/2/2 166/2/2 170/2/2
f 167/2/2 168/2/2 171/2/2
f 171/2/2 168/2/2 172/2/2
f 173/1/2 174/1/2 176/1/2
f 176/1/2 174/1/2 177/1/2
f 175/1/2 176/1/2 179/1/2
f 177/1/2 178/1/2 179/1/2
f 176/1/2 177/1/2 179/1/2
f 179/1/2 178/1/2 180/1/2
f 181/1/2 182/1/2 183/1/2
f 183/1/2 182/1/2 184/1/2
f 185/1/2 186/1/2 187/1/2
f 187/1/2 186/1/2 188/1/2
f 181/1/2 183/1/2 189/1/2
f 181/1/2 189/1/2 191/1/2
f 189/1/2 190/1/2 191/1/2
f 191/1/2 190/1/2 192/1/2
f 193/1/2 194/1/2 195/1/2
f 195/1/2 194/1/2 196/1/2
f 197/2/2 198/2/2 200/2/2
f 200/2/2 198/2/2 201/2/2
f 199/2/2 200/2/2 203/2/2
f 201/2/2 202/2/2 203/2/2
f 200/2/2 201/2/2 203/2/2
f 203/2/2 202/2/2 204/2/2
f 204/2/2 202/2/2 205/2/2
f 205/2/2 202/2/2 206/2/2
f 204/2/2 205/2/2 207/2/2
f 207/2/2 205/2/2 208/2/2
f 209/1/2 210/1/2 211/1/2
f 211/1/2 210/1/2 212/1/2
f 213/1/2 214/1/2 215/1/2
f 215/1/2 214/1/2 216/1/2
f 217/1/2 218/1/2 219/1/2
f 219/1/2 218/1/2 220/1/2
f 223/1/3 222/1/3 221/1/3
f 224/1/3 222/1/3 223/1/3
f 227/1/3 226/1/3 225/1/3
f 228/1/3 226/1/3 227/1/3
f 231/1/3 230/1/3 229/1/3
f 232/1/3 230/1/3 231/1/3
f 242/1/3 234/1/3 233/1/3
f 243/1/3 234/1/3 242/1/3
f 244/1/3 236/1/3 235/1/3
f 245/1/3 236/1/3 244/1/3
f 246/1/3 236/1/3 245/1/3
f 247/1/3 236/1/3 246/1/3
f 248/1/3 238/1/3 237/1/3
f 250/2/3 240/2/3 239/2/3
f 251/2/3 240/2/3 250/2/3
f 253/1/3 243/1/3 242/1/3
f 253/1/3 242/1/3 241/1/3
f 253/1/3 244/1/3 243/1/3
f 253/1/3 245/1/3 244/1/3
f 254/1/3 245/1/3 253/1/3
f 255/1/3 245/1/3 254/1/3
f 256/1/3 245/1/3 255/1/3
f 257/1/3 245/1/3 256/1/3
f 258/1/3 248/1/3 247/1/3
f 258/1/3 247/1/3 246/1/3
f 259/1/3 248/1/3 258/1/3
f 260/1/3 238/1/3 248/1/3
f 260/1/3 248/1/3 259/1/3
f 261/2/3 252/2/3 251/2/3
f 261/2/3 251/2/3 250/2/3
f 261/2/3 250/2/3 249/2/3
f 262/2/3 252/2/3 261/2/3
f 263/2/3 252/2/3 262/2/3
f 264/2/3 252/2/3 263/2/3
f 265/1/3 255/1/3 254/1/3
f 266/1/3 255/1/3 265/1/3
f 267/1/3 257/1/3 256/1/3
f 267/1/3 258/1/3 257/1/3
f 267/1/3 259/1/3 258/1/3
f 268/1/3 259/1/3 267/1/3
f 269/1/3 238/1/3 260/1/3
f 270/1/3 238/1/3 269/1/3
f 271/2/3 263/2/3 262/2/3
f 272/2/3 263/2/3 271/2/3
f 281/1/3 274/1/3 273/1/3
f 282/1/3 274/1/3 281/1/3
f 283/1/3 276/1/3 275/1/3
f 284/1/3 276/1/3 283/1/3
f 287/2/3 278/2/3 277/2/3
f 288/2/3 278/2/3 287/2/3
f 289/2/3 280/2/3 279/2/3
f 290/2/3 280/2/3 289/2/3
f 295/1/3 286/1/3 285/1/3
f 296/1/3 286/1/3 295/1/3
f 301/1/3 292/1/3 291/1/3
f 302/1/3 292/1/3 301/1/3
f 303/1/3 294/1/3 293/1/3
f 304/1/3 294/1/3 303/1/3
f 305/2/3 298/2/3 297/2/3
f 306/2/3 298/2/3 305/2/3
f 307/2/3 300/2/3 299/2/3
f 308/2/3 300/2/3 307/2/3
f 311/1/3 310/1/3 309/1/3
f 312/1/3 310/1/3 311/1/3
f 315/1/3 314/1/3 313/1/3
f 316/1/3 314/1/3 315/1/3
f 319/1/3 318/1/3 317/1/3
f 320/1/3 318/1/3 319/1/3
f 323/1/3 322/1/3 321/1/3
f 324/1/3 322/1/3 323/1/3
f 325/1/4 326/1/4 327/1/4
f 327/1/4 326/1/4 328/1/4
f 329/1/4 330/1/4 331/1/4
f 331/1/4 330/1/4 332/1/4
f 333/1/4 334/1/4 335/1/4
f 335/1/4 334/1/4 336/1/4
f 337/1/4 338/1/4 339/1/4
f 339/1/4 338/1/4 340/1/4
f 341/1/4 342/1/4 343/1/4
f 343/1/4 342/1/4 344/1/4
f 347/1/4 348/1/4 351/1/4
f 345/1/4 346/1/4 351/1/4
f 346/1/4 347/1/4 351/1/4
f 351/1/4 348/1/4 352/1/4
f 352/1/4 348/1/4 353/1/4
f 353/1/4 348/1/4 354/1/4
f 349/1/4 350/1/4 355/1/4
f 355/1/4 350/1/4 356/1/4
f 357/2/4 358/2/4 361/2/4
f 361/2/4 358/2/4 362/2/4
f 359/2/4 360/2/4 363/2/4
f 363/2/4 360/2/4 364/2/4
f 365/2/4 366/2/4 369/2/4
f 369/2/4 366/2/4 370/2/4
f 367/2/4 368/2/4 371/2/4
f 371/2/4 368/2/4 372/2/4
f 373/1/4 374/1/4 386/1/4
f 386/1/4 374/1/4 387/1/4
f 375/1/4 376/1/4 388/1/4
f 377/1/4 378/1/4 389/1/4
f 389/1/4 378/1/4 390/1/4
f 379/1/4 380/1/4 391/1/4
f 381/1/4 382/1/4 392/1/4
f 383/2/4 384/2/4 394/2/4
f 394/2/4 384/2/4 395/2/4
f 386/1/4 387/1/4 397/1/4
f 387/1/4 388/1/4 397/1/4
f 385/1/4 386/1/4 397/1/4
f 397/1/4 388/1/4 398/1/4
f 398/1/4 388/1/4 399/1/4
f 388/1/4 376/1/4 400/1/4
f 399/1/4 388/1/4 400/1/4
f 391/1/4 392/1/4 403/1/4
f 379/1/4 391/1/4 403/1/4
f 392/1/4 382/1/4 404/1/4
f 403/1/4 392/1/4 404/1/4
f 395/2/4 396/2/4 405/2/4
f 394/2/4 395/2/4 405/2/4
f 393/2/4 394/2/4 405/2/4
f 405/2/4 396/2/4 406/2/4
f 406/2/4 396/2/4 407/2/4
f 407/2/4 396/2/4 408/2/4
f 398/1/4 399/1/4 409/1/4
f 409/1/4 399/1/4 410/1/4
f 400/1/4 376/1/4 411/1/4
f 411/1/4 376/1/4 412/1/4
f 401/1/4 402/1/4 413/1/4
f 413/1/4 402/1/4 414/1/4
f 379/1/4 403/1/4 415/1/4
f 415/1/4 403/1/4 416/1/4
f 404/1/4 382/1/4 417/1/4
f 417/1/4 382/1/4 418/1/4
f 406/2/4 407/2/4 419/2/4
f 419/2/4 407/2/4 420/2/4
f 421/1/4 422/1/4 423/1/4
f 423/1/4 422/1/4 424/1/4
f 425/1/4 426/1/4 427/1/4
f 427/1/4 426/1/4 428/1/4
f 429/1/4 430/1/4 431/1/4
f 431/1/4 430/1/4 432/1/4
f 433/1/4 434/1/4 435/1/4
f 435/1/4 434/1/4 436/1/4
f 437/1/4 438/1/4 439/1/4
f 439/1/4 438/1/4 440/1/4
f 443/1/5 442/1/5 441/1/5
f 444/1/5 442/1/5 443/1/5
f 445/1/5 442/1/5 444/1/5
f 446/1/5 442/1/5 445/1/5
f 447/1/5 443/1/5 441/1/5
f 448/1/5 445/1/5 444/1/5
f 449/1/5 445/1/5 448/1/5
f 450/1/5 442/1/5 446/1/5
f 451/1/5 449/1/5 448/1/5
f 451/1/5 450/1/5 449/1/5
f 451/1/5 447/1/5 441/1/5
f 451/1/5 448/1/5 447/1/5
f 452/1/5 450/1/5 451/1/5
f 453/1/5 450/1/5 452/1/5
f 454/1/5 442/1/5 450/1/5
f 454/1/5 450/1/5 453/1/5
f 455/1/5 451/1/5 441/1/5
f 456/1/5 453/1/5 452/1/5
f 457/1/5 453/1/5 456/1/5
f 458/1/5 442/1/5 454/1/5
f 459/1/5 455/1/5 441/1/5
f 459/1/5 458/1/5 457/1/5
f 459/1/5 457/1/5 456/1/5
f 459/1/5 456/1/5 455/1/5
f 460/1/5 442/1/5 458/1/5
f 460/1/5 458/1/5 459/1/5
f 465/1/5 462/1/5 461/1/5
f 466/1/5 462/1/5 465/1/5
f 467/1/5 464/1/5 463/1/5
f 468/1/5 464/1/5 467/1/5
f 473/1/5 470/1/5 469/1/5
f 474/1/5 470/1/5 473/1/5
f 475/1/5 472/1/5 471/1/5
f 476/1/5 472/1/5 475/1/5
f 481/1/5 478/1/5 477/1/5
f 482/1/5 478/1/5 481/1/5
f 483/1/5 480/1/5 479/1/5
f 484/1/5 480/1/5 483/1/5
f 489/1/5 486/1/5 485/1/5
f 490/1/5 486/1/5 489/1/5
f 491/1/5 488/1/5 487/1/5
f 492/1/5 488/1/5 491/1/5
f 497/1/5 494/1/5 493/1/5
f 498/1/5 494/1/5 497/1/5
f 499/1/5 496/1/5 495/1/5
f 500/1/5 496/1/5 499/1/5
f 505/1/5 502/1/5 501/1/5
f 506/1/5 502/1/5 505/1/5
f 507/1/5 504/1/5 503/1/5
f 508/1/5 504/1/5 507/1/5
f 512/1/5 510/1/5 509/1/5
f 513/1/5 510/1/5 512/1/5
f 515/1/5 512/1/5 511/1/5
f 516/1/5 514/1/5 513/1/5
f 517/1/5 515/1/5 511/1/5
f 517/1/5 516/1/5 515/1/5
f 518/1/5 514/1/5 516/1/5
f 518/1/5 516/1/5 517/1/5
f 523/1/5 520/1/5 519/1/5
f 524/1/5 520/1/5 523/1/5
f 525/1/5 522/1/5 521/1/5
f 526/1/5 522/1/5 525/1/5
f 530/2/5 528/2/5 527/2/5
f 531/2/5 528/2/5 530/2/5
f 533/2/5 530/2/5 529/2/5
f 533/2/5 532/2/5 531/2/5
f 533/2/5 531/2/5 530/2/5
f 534/2/5 532/2/5 533/2/5
f 535/2/5 532/2/5 534/2/5
f 536/2/5 532/2/5 535/2/5
f 537/2/5 535/2/5 534/2/5
f 538/2/5 535/2/5 537/2/5
f 543/2/5 540/2/5 539/2/5
f 544/2/5 540/2/5 543/2/5
f 545/2/5 542/2/5 541/2/5
f 546/2/5 542/2/5 545/2/5
f 551/2/5 548/2/5 547/2/5
f 552/2/5 548/2/5 551/2/5
f 553/2/5 550/2/5 549/2/5
f 554/2/5 550/2/5 553/2/5
f 555/1/6 556/1/6 557/1/6
f 557/1/6 556/1/6 558/1/6
f 555/1/6 557/1/6 559/1/6
f 558/1/6 556/1/6 560/1/6
f 555/1/6 559/1/6 561/1/6
f 559/1/6 560/1/6 561/1/6
f 560/1/6 556/1/6 562/1/6
f 561/1/6 560/1/6 562/1/6
f 563/1/6 564/1/6 565/1/6
f 565/1/6 564/1/6 566/1/6
f 563/1/6 565/1/6 567/1/6
f 566/1/6 564/1/6 568/1/6
f 563/1/6 567/1/6 569/1/6
f 567/1/6 568/1/6 569/1/6
f 568/1/6 564/1/6 570/1/6
f 569/1/6 568/1/6 570/1/6
f 571/1/6 572/1/6 573/1/6
f 573/1/6 572/1/6 574/1/6
f 571/1/6 573/1/6 575/1/6
f 575/1/6 573/1/6 576/1/6
f 574/1/6 572/1/6 577/1/6
f 577/1/6 572/1/6 578/1/6
f 571/1/6 575/1/6 579/1/6
f 578/1/6 572/1/6 582/1/6
f 579/1/6 580/1/6 583/1/6
f 581/1/6 582/1/6 584/1/6
f 579/1/6 583/1/6 585/1/6
f 583/1/6 584/1/6 585/1/6
f 571/1/6 579/1/6 585/1/6
f 584/1/6 582/1/6 586/1/6
f 585/1/6 584/1/6 586/1/6
f 582/1/6 572/1/6 586/1/6
f 587/1/6 588/1/6 591/1/6
f 591/1/6 588/1/6 592/1/6
f 589/1/6 590/1/6 593/1/6
f 593/1/6 590/1/6 594/1/6
f 595/1/6 596/1/6 598/1/6
f 598/1/6 596/1/6 599/1/6
f 597/1/6 598/1/6 601/1/6
f 599/1/6 600/1/6 602/1/6
f 597/1/6 601/1/6 603/1/6
f 601/1/6 602/1/6 603/1/6
f 602/1/6 600/1/6 604/1/6
f 603/1/6 602/1/6 604/1/6
f 605/1/6 606/1/6 609/1/6
f 609/1/6 606/1/6 610/1/6
f 607/1/6 608/1/6 611/1/6
f 611/1/6 608/1/6 612/1/6
f 613/1/6 614/1/6 617/1/6
f 617/1/6 614/1/6 618/1/6
f 615/1/6 616/1/6 619/1/6
f 619/1/6 616/1/6 620/1/6
f 621/1/6 622/1/6 623/1/6
f 623/1/6 622/1/6 624/1/6
f 625/2/6 626/2/6 629/2/6
f 629/2/6 626/2/6 630/2/6
f 627/2/6 628/2/6 631/2/6
f 631/2/6 628/2/6 632/2/6
f 633/2/6 634/2/6 637/2/6
f 637/2/6 634/2/6 638/2/6
f 635/2/6 636/2/6 639/2/6
f 639/2/6 636/2/6 640/2/6
f 641/2/6 642/2/6 644/2/6
f 644/2/6 642/2/6 645/2/6
f 643/2/6 644/2/6 647/2/6
f 645/2/6 646/2/6 647/2/6
f 644/2/6 645/2/6 647/2/6
f 647/2/6 646/2/6 648/2/6
f 648/2/6 646/2/6 649/2/6
f 649/2/6 646/2/6 650/2/6
f 648/2/6 649/2/6 651/2/6
f 651/2/6 649/2/6 652/2/6
